<?xml version="1.0" encoding="UTF-8" standalone="no"?>
<svg
   xmlns:dc="http://purl.org/dc/elements/1.1/"
   xmlns:cc="http://creativecommons.org/ns#"
   xmlns:rdf="http://www.w3.org/1999/02/22-rdf-syntax-ns#"
   xmlns:svg="http://www.w3.org/2000/svg"
   xmlns="http://www.w3.org/2000/svg"
   xmlns:sodipodi="http://sodipodi.sourceforge.net/DTD/sodipodi-0.dtd"
   xmlns:inkscape="http://www.inkscape.org/namespaces/inkscape"
   width="0.166667in"
   height="0.166667in"
   viewBox="0 0 50 50"
   version="1.1"
   id="svg30"
   sodipodi:docname="9sq_new.svg"
   inkscape:version="0.92.5 (2060ec1f9f, 2020-04-08)">
  <metadata
     id="metadata36">
    <rdf:RDF>
      <cc:Work
         rdf:about="">
        <dc:format>image/svg+xml</dc:format>
        <dc:type
           rdf:resource="http://purl.org/dc/dcmitype/StillImage" />
        <dc:title></dc:title>
      </cc:Work>
    </rdf:RDF>
  </metadata>
  <defs
     id="defs34" />
  <sodipodi:namedview
     pagecolor="#ffffff"
     bordercolor="#666666"
     borderopacity="1"
     objecttolerance="10"
     gridtolerance="10"
     guidetolerance="10"
     inkscape:pageopacity="0"
     inkscape:pageshadow="2"
     inkscape:window-width="3840"
     inkscape:window-height="1970"
     id="namedview32"
     showgrid="false"
     inkscape:zoom="109.31228"
     inkscape:cx="8.000016"
     inkscape:cy="8.000016"
     inkscape:window-x="0"
     inkscape:window-y="44"
     inkscape:window-maximized="1"
     inkscape:current-layer="svg30" />
  <path
     id="Selection #8"
     fill="none"
     stroke="black"
     stroke-width="1"
     d="M 34.00,34.00            C 34.00,34.00 34.00,48.00 34.00,48.00              34.00,48.00 48.00,48.00 48.00,48.00              48.00,48.00 48.00,34.00 48.00,34.00              48.00,34.00 34.00,34.00 34.00,34.00 Z            M 18.00,34.00            C 18.00,34.00 18.00,48.00 18.00,48.00              18.00,48.00 32.00,48.00 32.00,48.00              32.00,48.00 32.00,34.00 32.00,34.00              32.00,34.00 18.00,34.00 18.00,34.00 Z            M 2.00,34.00            C 2.00,34.00 2.00,48.00 2.00,48.00              2.00,48.00 16.00,48.00 16.00,48.00              16.00,48.00 16.00,34.00 16.00,34.00              16.00,34.00 2.00,34.00 2.00,34.00 Z            M 34.00,18.00            C 34.00,18.00 34.00,32.00 34.00,32.00              34.00,32.00 48.00,32.00 48.00,32.00              48.00,32.00 48.00,18.00 48.00,18.00              48.00,18.00 34.00,18.00 34.00,18.00 Z            M 18.00,18.00            C 18.00,18.00 18.00,32.00 18.00,32.00              18.00,32.00 32.00,32.00 32.00,32.00              32.00,32.00 32.00,18.00 32.00,18.00              32.00,18.00 18.00,18.00 18.00,18.00 Z            M 2.00,18.00            C 2.00,18.00 2.00,32.00 2.00,32.00              2.00,32.00 16.00,32.00 16.00,32.00              16.00,32.00 16.00,18.00 16.00,18.00              16.00,18.00 2.00,18.00 2.00,18.00 Z            M 34.00,2.00            C 34.00,2.00 34.00,16.00 34.00,16.00              34.00,16.00 48.00,16.00 48.00,16.00              48.00,16.00 48.00,2.00 48.00,2.00              48.00,2.00 34.00,2.00 34.00,2.00 Z            M 18.00,2.00            C 18.00,2.00 18.00,16.00 18.00,16.00              18.00,16.00 32.00,16.00 32.00,16.00              32.00,16.00 32.00,2.00 32.00,2.00              32.00,2.00 18.00,2.00 18.00,2.00 Z            M 2.00,2.00            C 2.00,2.00 2.00,16.00 2.00,16.00              2.00,16.00 16.00,16.00 16.00,16.00              16.00,16.00 16.00,2.00 16.00,2.00              16.00,2.00 2.00,2.00 2.00,2.00 Z" />
  <path
     style="fill:#ffffff;stroke-width:0.0091481"
     d="m 0.80594786,2.8798228 c 0,0.6906818 0,1.3813635 0,2.0720453 1.38441284,0 2.76882584,0 4.15323874,0 0,-1.3813635 0,-2.7627271 0,-4.14409062 -1.3844129,0 -2.7688259,0 -4.15323874,0 0,0.69068182 0,1.38136352 0,2.07204532 z"
     id="path40"
     inkscape:connector-curvature="0"
     transform="scale(3.1249937)" />
  <path
     style="fill:#ffffff;stroke-width:0.0091481"
     d="m 5.9288855,2.8798228 c 0,0.6906818 0,1.3813635 0,2.0720453 1.3813635,0 2.7627271,0 4.1440905,0 0,-1.3813635 0,-2.7627271 0,-4.14409062 -1.3813634,0 -2.762727,0 -4.1440905,0 0,0.69068182 0,1.38136352 0,2.07204532 z"
     id="path42"
     inkscape:connector-curvature="0"
     transform="scale(3.1249937)" />
  <path
     style="fill:#ffffff;stroke-width:0.0091481"
     d="m 11.042675,2.8798228 c 0,0.6906818 0,1.3813635 0,2.0720453 1.384413,0 2.768826,0 4.153239,0 0,-1.3813635 0,-2.7627271 0,-4.14409062 -1.384413,0 -2.768826,0 -4.153239,0 0,0.69068182 0,1.38136352 0,2.07204532 z"
     id="path44"
     inkscape:connector-curvature="0"
     transform="scale(3.1249937)" />
  <path
     style="fill:#ffffff;stroke-width:0.0091481"
     d="m 0.80594786,7.9981864 c 0,0.6922064 0,1.3844128 0,2.0766196 1.38441284,0 2.76882584,0 4.15323874,0 0,-1.3844132 0,-2.7688261 0,-4.153239 -1.3844129,0 -2.7688259,0 -4.15323874,0 0,0.6922065 0,1.3844129 0,2.0766194 z"
     id="path46"
     inkscape:connector-curvature="0"
     transform="scale(3.1249937)" />
  <path
     style="fill:#ffffff;stroke-width:0.0091481"
     d="m 5.9288855,7.9981864 c 0,0.6922064 0,1.3844128 0,2.0766196 1.3813635,0 2.7627271,0 4.1440905,0 0,-1.3844132 0,-2.7688261 0,-4.153239 -1.3813634,0 -2.762727,0 -4.1440905,0 0,0.6922065 0,1.3844129 0,2.0766194 z"
     id="path48"
     inkscape:connector-curvature="0"
     transform="scale(3.1249937)" />
  <path
     style="fill:#ffffff;stroke-width:0.0091481"
     d="m 11.042675,7.9981864 c 0,0.6922064 0,1.3844128 0,2.0766196 1.384413,0 2.768826,0 4.153239,0 0,-1.3844132 0,-2.7688261 0,-4.153239 -1.384413,0 -2.768826,0 -4.153239,0 0,0.6922065 0,1.3844129 0,2.0766194 z"
     id="path50"
     inkscape:connector-curvature="0"
     transform="scale(3.1249937)" />
  <path
     style="fill:#ffffff;stroke-width:0.0091481"
     d="m 0.80594786,13.121124 c 0,0.692206 0,1.384413 0,2.076619 1.38441284,0 2.76882584,0 4.15323874,0 0,-1.384413 0,-2.768826 0,-4.153238 -1.3844129,0 -2.7688259,0 -4.15323874,0 0,0.692206 0,1.384412 0,2.076619 z"
     id="path52"
     inkscape:connector-curvature="0"
     transform="scale(3.1249937)" />
  <path
     style="fill:#ffffff;stroke-width:0.0091481"
     d="m 5.9288855,13.121124 c 0,0.692206 0,1.384413 0,2.076619 1.3813635,0 2.7627271,0 4.1440905,0 0,-1.384413 0,-2.768826 0,-4.153238 -1.3813634,0 -2.762727,0 -4.1440905,0 0,0.692206 0,1.384412 0,2.076619 z"
     id="path54"
     inkscape:connector-curvature="0"
     transform="scale(3.1249937)" />
  <path
     style="fill:#ffffff;stroke-width:0.0091481"
     d="m 11.042675,13.121124 c 0,0.692206 0,1.384413 0,2.076619 1.384413,0 2.768826,0 4.153239,0 0,-1.384413 0,-2.768826 0,-4.153238 -1.384413,0 -2.768826,0 -4.153239,0 0,0.692206 0,1.384412 0,2.076619 z"
     id="path56"
     inkscape:connector-curvature="0"
     transform="scale(3.1249937)" />
</svg>
