<?xml version="1.0" encoding="UTF-8" standalone="no"?>
<svg
   xmlns:dc="http://purl.org/dc/elements/1.1/"
   xmlns:cc="http://creativecommons.org/ns#"
   xmlns:rdf="http://www.w3.org/1999/02/22-rdf-syntax-ns#"
   xmlns:svg="http://www.w3.org/2000/svg"
   xmlns="http://www.w3.org/2000/svg"
   xmlns:sodipodi="http://sodipodi.sourceforge.net/DTD/sodipodi-0.dtd"
   xmlns:inkscape="http://www.inkscape.org/namespaces/inkscape"
   width="0.833333in"
   height="0.833333in"
   viewBox="0 0 250 250"
   version="1.1"
   id="svg97"
   sodipodi:docname="default_accounts.svg"
   inkscape:version="0.92.5 (2060ec1f9f, 2020-04-08)">
  <metadata
     id="metadata103">
    <rdf:RDF>
      <cc:Work
         rdf:about="">
        <dc:format>image/svg+xml</dc:format>
        <dc:type
           rdf:resource="http://purl.org/dc/dcmitype/StillImage" />
        <dc:title></dc:title>
      </cc:Work>
    </rdf:RDF>
  </metadata>
  <defs
     id="defs101" />
  <sodipodi:namedview
     pagecolor="#ffffff"
     bordercolor="#666666"
     borderopacity="1"
     objecttolerance="10"
     gridtolerance="10"
     guidetolerance="10"
     inkscape:pageopacity="0"
     inkscape:pageshadow="2"
     inkscape:window-width="3840"
     inkscape:window-height="1970"
     id="namedview99"
     showgrid="false"
     inkscape:zoom="16.687726"
     inkscape:cx="51.224913"
     inkscape:cy="42.875271"
     inkscape:window-x="0"
     inkscape:window-y="44"
     inkscape:window-maximized="1"
     inkscape:current-layer="svg97" />
  <path
     id="Selection #1"
     fill="none"
     stroke="black"
     stroke-width="1"
     d="M 10.00,240.00            C 10.00,240.00 240.00,240.00 240.00,240.00              240.00,235.26 240.23,231.63 238.78,227.00              233.91,211.45 219.29,207.49 205.00,205.08              198.53,203.99 179.87,202.18 177.87,194.91              176.88,191.31 182.45,184.27 184.40,181.00              189.90,171.75 193.93,160.44 196.53,150.00              205.53,113.81 199.86,69.34 177.24,39.00              159.03,14.57 128.45,1.77 100.00,16.89              90.62,21.87 82.04,29.66 75.52,38.00              57.62,60.86 53.17,86.00 51.18,114.00              50.92,117.63 51.68,119.55 51.91,123.00              53.01,138.98 54.95,153.03 61.28,168.00              64.80,176.30 65.26,177.26 70.05,185.00              71.41,187.20 73.74,190.27 73.18,192.98              72.52,196.18 68.76,198.36 66.00,199.52              60.33,201.91 50.30,203.09 44.00,204.26              22.51,208.27 10.51,216.74 10.00,240.00 Z            M 10.00,10.00            C 10.00,10.00 10.00,240.00 10.00,240.00              10.00,240.00 240.00,240.00 240.00,240.00              240.00,240.00 240.00,10.00 240.00,10.00              240.00,10.00 10.00,10.00 10.00,10.00 Z" />
  <path
     style="fill:#ffffff;stroke-width:0.05992428"
     d="m 3.4144898,38.32618 c 0.00109,11.650279 0.00218,23.300558 0.00328,34.950837 0.5186854,-2.080541 1.6325195,-4.06138 3.3882967,-5.338882 2.5542814,-1.8916 5.7573425,-2.528415 8.8289735,-3.032696 1.935932,-0.36594 3.942692,-0.57909 5.753136,-1.402983 0.738247,-0.386948 1.57778,-0.895865 1.813502,-1.748574 0.17396,-0.921371 -0.541376,-1.677551 -0.938944,-2.436606 -1.701422,-2.625979 -2.97395,-5.510405 -3.93245,-8.483504 -1.19262,-3.749893 -1.641045,-7.680866 -1.93249,-11.589316 -0.158728,-1.17264 -0.286471,-2.356012 -0.152886,-3.538914 0.465224,-5.908747 1.333323,-11.912802 3.884202,-17.323081 2.432812,-5.188768 6.196818,-9.8890426 11.179786,-12.8159782 1.7947,-1.0531401 3.77547,-1.762087 5.809845,-2.1827126 -11.235803,-0.00281 -22.471606,-0.00562 -33.7074084,-0.00843 0.00105,11.6502788 0.00211,23.3005578 0.00316,34.9508368 z"
     id="path107"
     inkscape:connector-curvature="0"
     transform="scale(3.1250012)" />
  <path
     style="fill:#ffffff;stroke-width:0.05992428"
     d="m 59.904945,3.3809612 c -5.404492,0.017803 -10.809914,-0.028934 -16.213767,0.055551 -0.38675,0.00927 0.158828,0.079081 0.25015,0.1097093 5.520952,1.2411415 10.248371,4.9475361 13.447551,9.5326265 3.707902,5.313501 5.822085,11.631188 6.619376,18.031411 0.295605,2.08771 0.33966,4.196945 0.314923,6.302076 0.07342,3.829935 -0.476,7.654931 -1.435244,11.357524 -0.991495,3.700389 -2.378362,7.340554 -4.535051,10.528532 -0.502787,0.883596 -1.219292,1.754223 -1.258527,2.811759 0.10442,0.934861 1.048677,1.432335 1.810486,1.798317 2.683571,1.136973 5.643034,1.242955 8.46158,1.857377 2.756646,0.556415 5.616139,1.535512 7.523222,3.711602 0.794803,0.918238 1.350334,2.024152 1.731016,3.170366 0.03187,-23.090781 0.01257,-46.181652 0.01814,-69.2724683 -5.577952,0.00187 -11.155904,0.00375 -16.733856,0.00562 z"
     id="path109"
     inkscape:connector-curvature="0"
     transform="scale(3.1250012)" />
  <path
     style="fill:#ffffff;stroke-width:0.05992428"
     d="m 3.3730109,38.416066 c 0.013038,11.182678 -0.023732,22.365572 0.038785,33.5481 0.028513,0.344702 -0.032095,0.849348 0.063274,1.119499 0.5449933,-2.188099 1.8528651,-4.202586 3.7558011,-5.442689 2.806534,-1.879902 6.226509,-2.367698 9.48413,-2.923118 1.792091,-0.356052 3.687259,-0.578545 5.274565,-1.551074 0.66767,-0.431565 1.462841,-1.169081 1.203167,-2.048895 -0.383706,-1.143749 -1.179368,-2.088926 -1.745061,-3.14345 -1.283222,-2.150679 -2.216572,-4.491265 -3.027229,-6.854542 -1.301612,-3.90731 -1.714426,-8.029448 -2.048541,-12.112161 -0.229991,-1.431317 -0.183819,-2.884179 -0.04579,-4.322204 0.506828,-5.93939 1.547179,-11.962161 4.292934,-17.315186 1.292838,-2.494495 2.855223,-4.871919 4.774252,-6.93083 1.53547,-1.6361703 3.190162,-3.1792723 5.101531,-4.3704355 2.013198,-1.3175233 4.286709,-2.2090092 6.641883,-2.6853103 -11.255777,-0.00281 -22.511555,-0.00562 -33.7673319,-0.00843 0.00121,11.6802418 0.00242,23.3604818 0.00363,35.0407228 z"
     id="path4619"
     inkscape:connector-curvature="0"
     transform="scale(3.1250012)" />
  <path
     style="fill:#000000;stroke-width:0.05992428"
     d="m 39.968254,3.5211747 c -4.149083,0.025182 -8.150234,1.7548688 -11.324006,4.3683163 -4.08184,3.314275 -7.104521,7.811267 -9.025203,12.679673 -1.969783,5.131781 -2.699217,10.638737 -3.045956,16.094468 -0.02168,1.349586 0.283626,2.678651 0.333463,4.026109 0.32042,4.16802 1.02818,8.34294 2.590288,12.238942 0.745814,1.935814 1.610056,3.831229 2.734526,5.579418 0.533851,0.998107 1.430431,1.935973 1.385987,3.137636 -0.155091,1.165476 -1.283856,1.852842 -2.267422,2.293758 -2.484004,1.030303 -5.207597,1.169291 -7.810921,1.739782 -2.731579,0.543975 -5.5668928,1.456034 -7.5410347,3.522535 -1.8384161,1.910668 -2.5057221,4.621169 -2.5879288,7.204007 -0.066628,0.407258 0.621151,0.103364 0.8872262,0.196995 24.1047763,0 48.2095523,0 72.3143283,0 -0.04021,-1.541917 0.01987,-3.147121 -0.639506,-4.58362 -0.818997,-2.128876 -2.618637,-3.755892 -4.687199,-4.647086 -3.690365,-1.672744 -7.854114,-1.552812 -11.675913,-2.764457 -1.096193,-0.358095 -2.265041,-0.914037 -2.807273,-1.992825 -0.339922,-1.079916 0.382439,-2.106965 0.887401,-3.005757 0.952139,-1.457627 1.87,-2.943173 2.567801,-4.542871 2.216178,-4.948866 3.43164,-10.334432 3.682993,-15.745848 0.09406,-2.87667 0.04401,-5.7656 -0.375144,-8.617744 C 62.642766,23.979241 60.289475,17.321781 56.043163,11.963875 52.941699,8.0354684 48.607747,4.9424707 43.664783,3.8894021 42.450962,3.6323766 41.209081,3.5061745 39.968254,3.5211747 Z"
     id="path4621"
     inkscape:connector-curvature="0"
     transform="scale(3.1250012)" />
</svg>
