<?xml version="1.0" encoding="UTF-8" standalone="no"?>
<svg
   xmlns:dc="http://purl.org/dc/elements/1.1/"
   xmlns:cc="http://creativecommons.org/ns#"
   xmlns:rdf="http://www.w3.org/1999/02/22-rdf-syntax-ns#"
   xmlns:svg="http://www.w3.org/2000/svg"
   xmlns="http://www.w3.org/2000/svg"
   xmlns:sodipodi="http://sodipodi.sourceforge.net/DTD/sodipodi-0.dtd"
   xmlns:inkscape="http://www.inkscape.org/namespaces/inkscape"
   width="3.33333in"
   height="0.8in"
   viewBox="0 0 1000 240"
   version="1.1"
   id="svg133"
   sodipodi:docname="logo-filled.svg"
   inkscape:version="0.92.5 (2060ec1f9f, 2020-04-08)">
  <metadata
     id="metadata139">
    <rdf:RDF>
      <cc:Work
         rdf:about="">
        <dc:format>image/svg+xml</dc:format>
        <dc:type
           rdf:resource="http://purl.org/dc/dcmitype/StillImage" />
        <dc:title></dc:title>
      </cc:Work>
    </rdf:RDF>
  </metadata>
  <defs
     id="defs137" />
  <sodipodi:namedview
     pagecolor="#ffffff"
     bordercolor="#666666"
     borderopacity="1"
     objecttolerance="10"
     gridtolerance="10"
     guidetolerance="10"
     inkscape:pageopacity="0"
     inkscape:pageshadow="2"
     inkscape:window-width="3840"
     inkscape:window-height="1970"
     id="namedview135"
     showgrid="false"
     inkscape:zoom="8"
     inkscape:cx="68.148961"
     inkscape:cy="99.279689"
     inkscape:window-x="3072"
     inkscape:window-y="44"
     inkscape:window-maximized="1"
     inkscape:current-layer="svg133" />
  <path
     id="Selection #14"
     fill="none"
     stroke="black"
     stroke-width="1"
     d="M 818.00,191.00            C 818.00,191.00 818.00,204.00 818.00,204.00              818.00,204.00 941.00,204.00 941.00,204.00              941.00,204.00 941.00,191.00 941.00,191.00              941.00,191.00 818.00,191.00 818.00,191.00 Z            M 632.00,191.00            C 632.00,191.00 632.00,204.00 632.00,204.00              632.00,204.00 746.00,204.00 746.00,204.00              746.00,204.00 746.00,191.00 746.00,191.00              746.00,191.00 632.00,191.00 632.00,191.00 Z            M 434.00,191.00            C 434.00,191.00 434.00,204.00 434.00,204.00              434.00,204.00 566.00,204.00 566.00,204.00              566.00,204.00 566.00,191.00 566.00,191.00              566.00,191.00 434.00,191.00 434.00,191.00 Z            M 242.00,191.00            C 242.00,191.00 242.00,204.00 242.00,204.00              242.00,204.00 376.00,204.00 376.00,204.00              376.00,204.00 376.00,191.00 376.00,191.00              376.00,191.00 242.00,191.00 242.00,191.00 Z            M 55.00,190.00            C 55.00,190.00 55.00,203.00 55.00,203.00              55.00,203.00 184.00,203.00 184.00,203.00              184.00,203.00 184.00,190.00 184.00,190.00              184.00,190.00 55.00,190.00 55.00,190.00 Z            M 831.00,47.00            C 831.00,47.00 831.00,171.00 831.00,171.00              831.00,171.00 858.00,171.00 858.00,171.00              858.00,171.00 858.00,122.00 858.00,122.00              858.00,122.00 882.00,122.00 882.00,122.00              886.95,122.06 893.94,122.73 897.61,126.39              903.64,132.41 901.03,140.64 901.00,148.00              900.98,153.25 901.05,153.85 901.72,159.00              902.69,166.41 902.10,170.83 911.00,171.00              911.00,171.00 934.00,171.00 934.00,171.00              933.38,163.32 931.01,164.65 928.89,159.00              927.87,156.27 928.00,152.89 928.00,150.00              927.99,141.98 928.18,125.48 923.49,119.02              920.70,115.17 916.98,113.30 913.00,111.00              917.21,108.94 921.36,106.39 924.48,102.83              935.33,90.46 934.16,65.33 921.91,54.33              915.30,48.39 908.53,47.01 900.00,47.00              900.00,47.00 831.00,47.00 831.00,47.00 Z            M 858.00,100.00            C 858.00,100.00 858.00,69.00 858.00,69.00              858.00,69.00 889.00,69.00 889.00,69.00              893.09,69.05 897.37,69.48 900.79,71.99              905.82,75.69 906.31,87.75 903.69,92.98              902.43,95.50 900.50,97.21 898.00,98.43              894.49,100.13 890.78,99.99 887.00,100.00              887.00,100.00 858.00,100.00 858.00,100.00 Z            M 646.00,47.00            C 646.00,47.00 646.00,171.00 646.00,171.00              646.00,171.00 740.00,171.00 740.00,171.00              740.00,171.00 740.00,149.00 740.00,149.00              740.00,149.00 673.00,149.00 673.00,149.00              673.00,149.00 673.00,118.00 673.00,118.00              673.00,118.00 732.00,118.00 732.00,118.00              732.00,118.00 732.00,96.00 732.00,96.00              732.00,96.00 673.00,96.00 673.00,96.00              673.00,96.00 673.00,69.00 673.00,69.00              673.00,69.00 737.00,69.00 737.00,69.00              737.00,69.00 737.00,47.00 737.00,47.00              737.00,47.00 646.00,47.00 646.00,47.00 Z            M 536.00,157.00            C 536.47,159.57 537.56,167.74 538.98,169.40              541.13,171.90 551.58,171.00 555.00,171.00              555.00,171.00 555.00,104.00 555.00,104.00              555.00,104.00 504.00,104.00 504.00,104.00              504.00,104.00 504.00,126.00 504.00,126.00              504.00,126.00 532.00,126.00 532.00,126.00              530.00,148.00 502.14,159.35 484.00,146.37              456.23,126.48 462.39,68.51 500.00,67.04              507.90,66.73 515.91,69.09 521.83,74.47              530.86,82.69 525.80,86.93 537.00,87.00              537.00,87.00 555.00,87.00 555.00,87.00              554.54,81.34 553.64,77.17 551.22,72.00              549.03,67.33 546.50,62.85 542.83,59.17              526.47,42.79 494.46,39.94 474.00,49.49              463.86,54.22 455.16,62.42 449.45,72.00              436.42,93.86 437.11,128.86 451.36,150.00              461.66,165.30 477.40,174.78 496.00,175.00              503.56,175.08 510.93,174.71 518.00,171.66              526.47,168.01 530.01,163.50 536.00,157.00 Z            M 297.00,45.46            C 278.48,49.46 265.02,58.71 256.37,76.00              252.06,84.61 250.84,91.61 249.84,101.00              246.08,136.10 264.16,174.53 304.00,175.00              318.36,175.16 328.13,175.22 341.00,167.55              376.72,146.25 379.11,84.97 349.00,58.18              334.97,45.71 315.05,42.97 297.00,45.46 Z            M 307.00,67.29            C 339.99,64.88 349.49,106.39 339.55,131.00              334.44,143.66 322.31,153.90 308.00,152.82              270.74,149.99 268.43,95.64 287.30,76.18              292.86,70.45 299.39,68.54 307.00,67.29 Z            M 69.00,46.00            C 69.00,46.00 69.00,170.00 69.00,170.00              69.00,170.00 96.00,170.00 96.00,170.00              96.00,170.00 96.00,88.00 96.00,88.00              96.00,88.00 112.42,116.00 112.42,116.00              112.42,116.00 132.28,150.00 132.28,150.00              134.61,154.10 141.44,167.78 145.21,169.40              146.89,170.12 150.12,170.00 152.00,170.00              152.00,170.00 171.00,170.00 171.00,170.00              171.00,170.00 171.00,46.00 171.00,46.00              171.00,46.00 144.00,46.00 144.00,46.00              144.00,46.00 144.00,127.00 144.00,127.00              144.00,127.00 107.80,65.00 107.80,65.00              105.53,61.19 99.08,48.08 95.67,46.57              94.07,45.86 90.80,46.00 89.00,46.00              89.00,46.00 69.00,46.00 69.00,46.00 Z            M 795.00,35.00            C 795.00,35.00 795.00,205.00 795.00,205.00              795.00,205.00 965.00,205.00 965.00,205.00              965.00,205.00 965.00,35.00 965.00,35.00              965.00,35.00 795.00,35.00 795.00,35.00 Z            M 605.00,35.00            C 605.00,35.00 605.00,205.00 605.00,205.00              605.00,205.00 775.00,205.00 775.00,205.00              775.00,205.00 775.00,35.00 775.00,35.00              775.00,35.00 605.00,35.00 605.00,35.00 Z            M 415.00,35.00            C 415.00,35.00 415.00,205.00 415.00,205.00              415.00,205.00 585.00,205.00 585.00,205.00              585.00,205.00 585.00,35.00 585.00,35.00              585.00,35.00 415.00,35.00 415.00,35.00 Z            M 225.00,35.00            C 225.00,35.00 225.00,205.00 225.00,205.00              225.00,205.00 395.00,205.00 395.00,205.00              395.00,205.00 395.00,35.00 395.00,35.00              395.00,35.00 225.00,35.00 225.00,35.00 Z            M 35.00,35.00            C 35.00,35.00 35.00,205.00 35.00,205.00              35.00,205.00 205.00,205.00 205.00,205.00              205.00,205.00 205.00,35.00 205.00,35.00              205.00,35.00 35.00,35.00 35.00,35.00 Z" />
  <path
     style="stroke-width:0.125"
     d="m 11.42987,38.367725 v -27 h 27 27 v 27 27 h -27 -27 z m 47.625,24.5 v -2.25 h -20.8125 -20.8125 v 2.25 2.25 h 20.8125 20.8125 z m -28.09434,-21.027871 0.03184,-12.77787 1.866222,3.18412 c 6.146653,10.487332 9.222141,15.772547 10.108614,17.371621 1.858925,3.353235 2.828837,4.631581 3.697065,4.872748 0.259383,0.07205 2.12317,0.126155 4.359349,0.126554 l 3.90625,6.98e-4 v -20.0625 -20.0625 h -4.561902 -4.561902 l -0.03185,12.561372 -0.03185,12.561374 -5.703239,-9.780124 C 36.90235,24.45628 33.872037,19.2396 33.3051,18.242725 32.193458,16.288061 31.448173,15.230977 30.889684,14.816786 30.550163,14.564989 30.374012,14.553783 26.170934,14.516593 l -4.366064,-0.03863 v 20.069882 20.069881 h 4.56191 4.561912 z"
     id="path141"
     inkscape:connector-curvature="0"
     transform="matrix(3.1250033,0,0,3.1250033,0,-1.3065352e-4)" />
  <path
     style="stroke-width:0.125"
     d="m 72.17987,38.367725 v -27 h 27 27 v 27 27 h -2.8125 -2.8125 v -2.25 -2.25 h -21.6875 -21.6875 v 2.25 2.25 h -2.5 -2.5 z m 31.37157,17.568213 c 3.0965,-0.531575 6.21247,-2.111933 8.57685,-4.35002 5.88136,-5.567198 8.0086,-15.645728 5.1644,-24.468193 -0.41312,-1.281488 -1.51058,-3.678422 -2.14622,-4.6875 -1.24536,-1.977039 -3.27541,-4.12864 -4.92323,-5.217994 -1.76253,-1.165188 -3.89779,-2.063904 -6.10587,-2.569917 -1.95801,-0.448704 -3.4076,-0.56416 -6.171476,-0.491544 -2.344616,0.0616 -2.709501,0.102083 -4.022376,0.446254 -5.677063,1.488242 -9.563577,4.60747 -12.09628,9.708201 -1.085331,2.1858 -1.561364,3.855014 -1.954367,6.85301 -0.741597,5.657221 -8.62e-4,10.721745 2.23366,15.27199 0.995005,2.026165 2.055752,3.532671 3.526638,5.008646 2.740361,2.749842 6.130717,4.296895 10.359201,4.727001 1.220363,0.124131 6.41747,-0.03395 7.55907,-0.229934 z"
     id="path143"
     inkscape:connector-curvature="0"
     transform="matrix(3.1250033,0,0,3.1250033,0,-1.3065352e-4)" />
  <path
     style="stroke-width:0.125"
     d="m 132.67987,38.430225 v -27.3125 h 27.3125 27.3125 v 27.3125 27.3125 h -27.3125 -27.3125 z m 6.125,24.8125 v -2.25 h 21.1875 21.1875 v 2.25 2.25 h 2.9375 2.9375 v -27.125 -27.125 h -27.0625 -27.0625 v 27.125 27.125 h 2.9375 2.9375 z m 42.25,-0.0625 v -1.9375 h -21.0625 -21.0625 v 1.9375 1.9375 h 21.0625 21.0625 z"
     id="path145"
     inkscape:connector-curvature="0"
     transform="matrix(3.1250033,0,0,3.1250033,0,-1.3065352e-4)" />
  <path
     style="stroke-width:0.125"
     d="m 133.05487,38.367725 v -27 h 26.9375 26.9375 v 27 27 h -2.8125 -2.8125 v -2.25 -2.25 h -21.3125 -21.3125 v 2.25 2.25 h -2.8125 -2.8125 z m 28.5625,17.74483 c 3.60749,-0.340972 5.95304,-1.451652 8.44196,-3.99749 l 1.31695,-1.347075 0.2784,1.447315 c 0.49053,2.550131 0.67397,2.67872 3.93144,2.755877 l 2.21875,0.05255 V 44.070731 33.117725 h -8.375 -8.375 v 3.6875 3.6875 h 4.4375 4.4375 l -0.001,0.28125 c -0.003,0.520591 -0.36367,1.649662 -0.82913,2.59375 -0.67977,1.378762 -2.32952,2.992601 -3.86541,3.781251 -1.73184,0.889271 -2.79013,1.145907 -4.74147,1.14982 -1.17655,0.0024 -1.84814,-0.05789 -2.43355,-0.218313 -4.06262,-1.113307 -7.05424,-4.787618 -8.14338,-10.001707 -0.3504,-1.677437 -0.38169,-4.611426 -0.0675,-6.331164 0.89039,-4.874128 3.6645,-8.431914 7.49628,-9.613964 1.34269,-0.414201 2.88953,-0.558098 4.24193,-0.39461 3.13877,0.37944 5.4583,1.871342 7.00209,4.503687 0.44722,0.762567 0.8347,1.268576 1.08282,1.414071 0.54852,0.321641 2.11779,0.456125 5.35259,0.458708 l 2.78125,0.0022 v -0.352973 c 0,-0.678662 -0.40653,-2.716916 -0.71494,-3.584527 -0.50011,-1.406949 -1.62809,-3.46955 -2.47898,-4.533032 -2.68817,-3.359786 -7.69872,-5.490237 -13.49358,-5.737369 -6.17381,-0.263292 -11.60107,1.876444 -15.26172,6.017039 -3.47853,3.934589 -5.17578,8.867944 -5.17578,15.044293 0,2.267566 0.11433,3.490865 0.51607,5.521569 1.54508,7.810177 6.97102,13.743233 13.99753,15.305741 1.95176,0.43402 4.06292,0.537242 6.4239,0.314089 z"
     id="path147"
     inkscape:connector-curvature="0"
     transform="matrix(3.1250033,0,0,3.1250033,0,-1.3065352e-4)" />
  <path
     style="stroke-width:0.125"
     d="m 97.86737,48.612093 c -4.864433,-0.75347 -7.998891,-4.201106 -9.143318,-10.056868 -0.333747,-1.707708 -0.307896,-5.067486 0.05292,-6.877954 0.6959,-3.491806 2.235317,-6.411574 4.162546,-7.894983 2.083822,-1.603941 5.496052,-2.385288 8.126112,-1.860751 5.1374,1.024601 8.53221,6.353956 8.52541,13.383688 -0.003,3.480006 -0.72548,6.250281 -2.24579,8.61564 -0.79071,1.230207 -2.512,2.879525 -3.71968,3.564137 -1.72639,0.978666 -3.930786,1.410148 -5.7582,1.127091 z"
     id="path149"
     inkscape:connector-curvature="0"
     transform="matrix(3.1250033,0,0,3.1250033,0,-1.3065352e-4)" />
  <path
     style="stroke-width:0.125"
     d="m 193.80487,38.367725 v -27 h 27 27 v 27 27 h -4.4375 -4.4375 v -2.25 -2.25 h -18.4375 -18.4375 v 2.25 2.25 h -4.125 -4.125 z m 43.22061,12.84375 0.0331,-3.71875 h -10.75186 -10.75186 v -4.75 -4.75 h 9.4375 9.4375 v -3.75 -3.75 h -9.4375 -9.4375 v -4.125 -4.125 h 10.25 10.25 v -3.6875 -3.6875 h -14.75 -14.75 v 20.062997 20.062999 l 15.21875,-0.03175 15.21875,-0.03175 z"
     id="path151"
     inkscape:connector-curvature="0"
     transform="matrix(3.1250033,0,0,3.1250033,0,-1.3065352e-4)" />
  <path
     style="stroke-width:0.125"
     d="m 254.67987,38.367725 v -27 h 26.9375 26.9375 v 27 27 h -3.625 -3.625 v -2.25 -2.25 h -19.875 -19.875 v 2.25 2.25 h -3.4375 -3.4375 z m 20.09469,8.708265 0.0322,-7.854234 4.6553,0.05524 c 3.83877,0.04555 4.80085,0.09247 5.48508,0.267498 1.14839,0.293768 2.0815,0.879725 2.57478,1.616858 0.73549,1.099077 0.75364,1.270104 0.65869,6.206375 -0.0657,3.418437 0.35693,6.212851 1.0363,6.85108 0.70475,0.662082 0.96221,0.696806 5.55671,0.749428 l 4.28125,0.04904 v -0.492406 c 0,-0.769104 -0.30204,-1.588732 -0.92261,-2.503669 -0.81988,-1.208768 -0.95239,-1.857375 -0.95239,-4.661578 0,-4.095832 -0.36578,-7.067668 -1.05526,-8.573698 -0.48427,-1.057791 -1.08321,-1.708506 -2.32633,-2.527467 l -1.11517,-0.734668 0.79916,-0.467365 c 2.43074,-1.421553 3.8786,-3.397005 4.59985,-6.276023 0.23067,-0.920733 0.2745,-1.436562 0.26875,-3.162669 -0.006,-1.815808 -0.0463,-2.212011 -0.33654,-3.3125 -0.81403,-3.086547 -2.44617,-5.233633 -4.89696,-6.441974 -2.00496,-0.98853 -1.01421,-0.92461 -14.96875,-0.965732 l -12.46875,-0.03674 v 19.982641 c 0,10.990454 0.0382,20.020841 0.0849,20.06753 0.0467,0.04669 2.08575,0.07013 4.53125,0.05208 l 4.44636,-0.03281 z"
     id="path153"
     inkscape:connector-curvature="0"
     transform="matrix(3.1250033,0,0,3.1250033,0,-1.3065352e-4)" />
  <path
     style="stroke-width:0.125;fill:#ffffff"
     d="M 274.80487,26.980882 V 22.21904 l 5.59375,0.05273 c 5.40301,0.05093 5.62359,0.06242 6.46875,0.336912 1.13866,0.369818 1.89868,1.111358 2.25566,2.200827 0.36201,1.104845 0.35166,3.761632 -0.0178,4.558218 -0.52172,1.125003 -1.32914,1.813243 -2.55391,2.176963 -0.56473,0.167706 -1.51534,0.198037 -6.20668,0.198037 h -5.53981 z"
     id="path155"
     inkscape:connector-curvature="0"
     transform="matrix(3.1250033,0,0,3.1250033,0,-1.3065352e-4)" />
  <path
     style="fill:#ffffff;stroke-width:0.0625"
     d="M 22.252512,34.538087 V 14.878019 l 3.921875,0.02341 c 2.957719,0.01765 3.981871,0.04302 4.165921,0.103177 0.669982,0.218987 1.587947,1.515868 3.322212,4.693551 0.35973,0.659131 3.230122,5.588749 11.235815,19.296417 l 1.322927,2.265166 0.01577,-13.187041 0.01577,-13.187042 h 4.124855 4.124855 v 19.65625 19.65625 h -3.61647 c -2.163407,0 -3.751734,-0.02529 -3.953125,-0.06294 -0.18516,-0.03462 -0.449155,-0.14109 -0.586655,-0.236603 -0.609649,-0.423486 -1.592118,-1.889849 -3.107449,-4.637955 -1.317708,-2.389711 -12.607638,-21.6875 -12.687999,-21.6875 -0.02657,0 -0.0483,5.990625 -0.0483,13.3125 v 13.3125 h -4.125 -4.125 z"
     id="path157"
     inkscape:connector-curvature="0"
     transform="matrix(3.1250033,0,0,3.1250033,0,-1.3065352e-4)" />
  <path
     style="fill:#ffffff;stroke-width:0.0625"
     d="m 17.815012,62.885656 v -1.875 h 20.4375 20.4375 v 1.875 1.875 h -20.4375 -20.4375 z"
     id="path159"
     inkscape:connector-curvature="0"
     transform="matrix(3.1250033,0,0,3.1250033,0,-1.3065352e-4)" />
  <path
     style="fill:#ffffff;stroke-width:0.0625"
     d="m 96.04567,55.755081 c -2.874872,-0.237192 -5.488747,-1.115559 -7.668158,-2.576809 -1.829718,-1.226788 -3.653247,-3.107104 -4.860019,-5.011366 -1.783899,-2.814955 -2.893192,-6.075709 -3.370061,-9.90625 -0.175314,-1.408246 -0.158016,-4.809783 0.03239,-6.368963 0.409151,-3.350446 0.888656,-5.131345 1.97892,-7.349787 1.009286,-2.053669 1.981602,-3.42818 3.49558,-4.941516 1.38116,-1.380575 2.52937,-2.216064 4.22132,-3.071619 1.739816,-0.87976 4.112028,-1.648705 5.751872,-1.864451 1.879,-0.24721 4.548876,-0.245163 6.390606,0.0049 4.23942,0.575615 7.54171,2.106358 10.1748,4.716435 3.13989,3.112442 5.0719,7.340715 5.79087,12.673494 0.15893,1.178831 0.15802,4.945542 -0.001,6.170256 -0.4346,3.336829 -1.36034,6.250812 -2.7798,8.75 -1.47324,2.593908 -3.49917,4.766993 -5.82726,6.250527 -0.78178,0.498178 -2.42059,1.313307 -3.25405,1.618541 -1.31893,0.483021 -2.92288,0.792633 -4.71136,0.909441 -1.13988,0.07445 -4.448668,0.0727 -5.364155,-0.0028 z m 4.85981,-6.810389 c 2.6494,-0.509212 5.04017,-2.181609 6.72457,-4.70399 2.63979,-3.953067 3.1666,-10.198131 1.30055,-15.417546 -0.27556,-0.77078 -0.98137,-2.193695 -1.41057,-2.84375 -1.38797,-2.10218 -3.20361,-3.537709 -5.29669,-4.187826 -1.15475,-0.358664 -1.66804,-0.432208 -3.033328,-0.434605 -1.110861,-0.0019 -1.290677,0.01356 -2.03125,0.175252 -1.122312,0.245033 -2.339584,0.656595 -3.105369,1.049933 -3.038873,1.560886 -5.065793,4.969174 -5.811589,9.772246 -0.160311,1.032437 -0.226474,3.651466 -0.120065,4.752758 0.212529,2.199598 0.715869,4.067233 1.565764,5.809742 0.950067,1.947888 2.168822,3.392361 3.775513,4.474754 2.101702,1.41587 5.004515,2.021605 7.442464,1.553032 z"
     id="path161"
     inkscape:connector-curvature="0"
     transform="matrix(3.1250033,0,0,3.1250033,0,-1.3065352e-4)" />
  <path
     style="fill:#ffffff;stroke-width:0.0625"
     d="m 77.627512,63.198156 v -1.875 h 21.25 21.249998 v 1.875 1.875 h -21.249998 -21.25 z"
     id="path163"
     inkscape:connector-curvature="0"
     transform="matrix(3.1250033,0,0,3.1250033,0,-1.3065352e-4)" />
  <path
     style="fill:#ffffff;stroke-width:0.0625"
     d="m 139.06501,63.198156 v -1.875 h 20.9375 20.9375 v 1.875 1.875 h -20.9375 -20.9375 z"
     id="path165"
     inkscape:connector-curvature="0"
     transform="matrix(3.1250033,0,0,3.1250033,0,-1.3065352e-4)" />
  <path
     style="fill:#ffffff;stroke-width:0.0625"
     d="m 157.53376,55.759209 c -3.42818,-0.306327 -6.61851,-1.607607 -9.23187,-3.765519 -0.73914,-0.610323 -1.91728,-1.785869 -2.51985,-2.514284 -2.68386,-3.244401 -4.24611,-7.396526 -4.65905,-12.382727 -0.0955,-1.153644 -0.0427,-4.220925 0.0909,-5.275427 0.67313,-5.313769 2.47344,-9.20924 5.73561,-12.41057 2.14167,-2.101727 4.4548,-3.482963 7.16195,-4.2766 4.41779,-1.295134 9.57182,-1.100078 13.98483,0.52926 0.93139,0.343881 2.53258,1.152713 3.32231,1.678249 2.11367,1.406562 3.28581,2.760682 4.50889,5.20888 0.55314,1.10721 0.8482,1.859981 1.07107,2.732525 0.16302,0.638248 0.37898,1.907211 0.37898,2.226852 v 0.132706 l -3.39062,-0.02081 c -3.16796,-0.01944 -3.4132,-0.02879 -3.73438,-0.142317 -0.44783,-0.158296 -0.8374,-0.550123 -1.14961,-1.156271 -1.48136,-2.876061 -4.12955,-4.635102 -7.53789,-5.006994 -0.85414,-0.0932 -2.27358,-0.035 -3.17479,0.130172 -4.79213,0.878275 -8.16924,4.946862 -9.05421,10.908072 -0.17086,1.150928 -0.15543,3.816301 0.029,5 0.53162,3.412987 1.79044,6.125115 3.82335,8.237461 0.92677,0.96298 1.80555,1.623448 2.84545,2.138563 0.89324,0.442467 1.48078,0.649462 2.43346,0.857335 0.54134,0.118119 0.82074,0.137255 2.00404,0.137255 1.19551,0 1.46067,-0.01853 2.03125,-0.141968 4.19865,-0.908307 7.22999,-3.86964 7.84546,-7.664282 0.0504,-0.3104 0.0916,-0.613583 0.0918,-0.673739 2.4e-4,-0.103156 -0.25561,-0.109375 -4.49975,-0.109375 h -4.5 v -3.34375 -3.34375 h 8 8 v 10.526276 10.526275 l -0.41166,0.04409 c -0.22641,0.02425 -1.04907,0.02889 -1.82813,0.01033 -1.93847,-0.0462 -2.4755,-0.183817 -2.70028,-0.691979 -0.1823,-0.41211 -0.40741,-1.373395 -0.62819,-2.682504 -0.11142,-0.660678 -0.22134,-1.223268 -0.24426,-1.250201 -0.0229,-0.02693 -0.41088,0.355455 -0.86215,0.849751 -1.12831,1.23591 -2.19015,2.244428 -2.89161,2.74641 -0.75099,0.537419 -2.24697,1.292427 -3.12018,1.574716 -0.76642,0.247766 -1.93599,0.495165 -2.81354,0.595145 -0.80327,0.09152 -3.63327,0.131819 -4.40625,0.06275 z"
     id="path167"
     inkscape:connector-curvature="0"
     transform="matrix(3.1250033,0,0,3.1250033,0,-1.3065352e-4)" />
  <path
     style="fill:#ffffff;stroke-width:0.0625"
     d="m 206.87751,34.854406 v -19.65625 h 14.375 14.375 v 3.34375 3.34375 h -10.21875 -10.21875 v 4.5 4.5 h 9.4375 9.4375 v 3.34375 3.34375 h -9.4375 -9.4375 v 5.15625 5.15625 h 10.71875 10.71875 v 3.3125 3.3125 h -14.875 -14.875 z"
     id="path169"
     inkscape:connector-curvature="0"
     transform="matrix(3.1250033,0,0,3.1250033,0,-1.3065352e-4)" />
  <path
     style="fill:#ffffff;stroke-width:0.0625"
     d="m 202.44001,63.198156 v -1.875 h 18.03125 18.03125 v 1.875 1.875 h -18.03125 -18.03125 z"
     id="path171"
     inkscape:connector-curvature="0"
     transform="matrix(3.1250033,0,0,3.1250033,0,-1.3065352e-4)" />
  <path
     style="fill:#ffffff;stroke-width:0.0625"
     d="m 202.44426,63.201143 v -1.90625 h 18.03125 18.03125 v 1.90625 1.90625 h -18.03125 -18.03125 z"
     id="path173"
     inkscape:connector-curvature="0"
     transform="matrix(3.1250033,0,0,3.1250033,0,-1.3065352e-4)" />
  <path
     style="fill:#ffffff;stroke-width:0.0625"
     d="m 206.88176,34.888643 v -19.65625 h 14.375 14.375 v 3.34375 3.34375 h -10.21875 -10.21875 v 4.5 4.5 h 9.4375 9.4375 v 3.3125 3.3125 h -9.4375 -9.4375 v 5.15625 5.15625 h 10.71875 10.71875 v 3.34375 3.34375 h -14.875 -14.875 z"
     id="path175"
     inkscape:connector-curvature="0"
     transform="matrix(3.1250033,0,0,3.1250033,0,-1.3065352e-4)" />
  <path
     style="fill:#ffffff;stroke-width:0.0625"
     d="m 139.06926,63.201143 v -1.90625 h 20.9375 20.9375 v 1.90625 1.90625 h -20.9375 -20.9375 z"
     id="path177"
     inkscape:connector-curvature="0"
     transform="matrix(3.1250033,0,0,3.1250033,0,-1.3065352e-4)" />
  <path
     style="fill:#ffffff;stroke-width:0.0625"
     d="m 157.17424,55.730655 c -2.09972,-0.238962 -3.90477,-0.775695 -5.76123,-1.713116 -1.75768,-0.887537 -3.00331,-1.801711 -4.46875,-3.279637 -2.02937,-2.046654 -3.39598,-4.203899 -4.41153,-6.963741 -1.54101,-4.187833 -1.90494,-9.517776 -0.96527,-14.136953 0.71719,-3.525546 2.06437,-6.421892 4.1419,-8.904815 1.15272,-1.377655 2.40522,-2.499793 3.90785,-3.501112 2.26758,-1.511071 4.64776,-2.359188 7.82705,-2.788974 1.05264,-0.142299 4.27573,-0.163376 5.3125,-0.03474 4.70579,0.583865 8.46562,2.228096 10.91066,4.771403 1.11174,1.15642 2.35887,3.245027 2.9988,5.022173 0.34168,0.948885 0.71554,2.679387 0.71554,3.312089 v 0.156661 l -2.85938,-0.0017 c -3.85353,-0.0023 -4.39381,-0.06399 -4.88814,-0.558318 -0.12786,-0.127859 -0.40847,-0.552198 -0.62359,-0.942975 -0.47469,-0.862307 -0.81092,-1.340872 -1.35475,-1.928262 -1.38493,-1.495845 -3.39405,-2.524926 -5.56721,-2.851543 -0.79901,-0.120089 -2.30965,-0.134933 -3.11318,-0.03059 -3.67985,0.477845 -6.71977,2.850462 -8.3633,6.527439 -0.87309,1.953311 -1.32873,4.00259 -1.39762,6.285943 -0.14065,4.661924 1.35435,8.826794 4.1743,11.629047 1.58974,1.579772 3.33314,2.492063 5.43354,2.843273 0.88068,0.147262 3.02573,0.09737 3.82372,-0.08894 2.49791,-0.583194 4.679,-1.951566 6.08777,-3.819347 0.49302,-0.653653 1.15248,-1.964471 1.36855,-2.72028 0.17566,-0.614441 0.37008,-1.77377 0.30789,-1.836014 -0.0214,-0.02144 -2.04755,-0.04786 -4.50252,-0.05871 l -4.46358,-0.01972 v -3.308402 -3.308403 h 8.00018 8.00018 l -0.0158,10.515625 -0.0158,10.515625 -0.96875,0.04003 c -0.53282,0.02202 -1.39063,0.01535 -1.90625,-0.01481 -1.27879,-0.07481 -1.76176,-0.215338 -2.00243,-0.582639 -0.14324,-0.218618 -0.48693,-1.659547 -0.68695,-2.880078 -0.0958,-0.584375 -0.19421,-1.085618 -0.21875,-1.113873 -0.0245,-0.02826 -0.55341,0.492057 -1.17525,1.15625 -1.87624,2.004008 -2.65423,2.618889 -4.32464,3.417946 -1.18945,0.568987 -2.15577,0.860034 -3.59059,1.081454 -0.65835,0.101597 -1.20208,0.129686 -2.84514,0.14698 -1.11719,0.01176 -2.2512,-0.0037 -2.52002,-0.03424 z"
     id="path179"
     inkscape:connector-curvature="0"
     transform="matrix(3.1250033,0,0,3.1250033,0,-1.3065352e-4)" />
  <path
     style="fill:#ffffff;stroke-width:0.0625"
     d="m 266.13176,34.888643 v -19.65625 l 11.39062,5.3e-5 c 7.39378,3.4e-5 11.63186,0.02283 12.07813,0.06497 2.31919,0.219008 4.07574,1.020389 5.59626,2.553157 3.24272,3.268827 3.77809,10.026997 1.11704,14.100566 -0.73143,1.119679 -2.10715,2.270354 -3.77835,3.160265 -0.39915,0.21255 -0.7025,0.408307 -0.67409,0.435015 0.0284,0.02671 0.43992,0.274848 0.91448,0.551424 1.63164,0.950909 2.3962,1.65464 2.88719,2.65747 0.76578,1.564076 1.013,3.403543 1.09309,8.133326 0.0552,3.25923 0.0753,3.477141 0.39202,4.256717 0.1653,0.406807 0.4277,0.840935 0.87795,1.452562 0.31044,0.421705 0.51285,0.952323 0.59511,1.560086 l 0.0534,0.394364 -3.97454,-0.0237 c -3.41051,-0.02034 -4.02123,-0.03784 -4.30354,-0.123312 -0.8252,-0.249851 -1.194,-0.663775 -1.38702,-1.556709 -0.0345,-0.159496 -0.14969,-0.975121 -0.25604,-1.8125 -0.25854,-2.035769 -0.29698,-3.380444 -0.15245,-5.333264 0.17456,-2.358581 0.0706,-3.299783 -0.482,-4.363414 -0.31388,-0.604165 -0.95988,-1.294886 -1.48724,-1.590206 -0.49627,-0.277905 -1.36533,-0.567242 -2.15625,-0.717879 -0.6511,-0.124006 -0.93653,-0.132286 -5.39063,-0.15638 l -4.70312,-0.02544 v 7.847663 7.847663 h -4.125 -4.125 z m 20.40625,-2.89116 c 0.82811,-0.229171 1.49361,-0.601555 2.03616,-1.139336 0.56235,-0.55742 0.80586,-0.964746 1.02141,-1.708544 0.60461,-2.086396 0.13861,-4.965243 -0.97386,-6.016296 -0.39926,-0.377219 -0.79976,-0.620074 -1.35486,-0.821565 -1.00339,-0.364209 -0.73525,-0.349987 -7.05698,-0.374292 l -5.82812,-0.02241 v 5.129851 5.129852 l 5.82812,-0.01945 c 5.79392,-0.01933 5.83106,-0.02026 6.32813,-0.157816 z"
     id="path181"
     inkscape:connector-curvature="0"
     transform="matrix(3.1250033,0,0,3.1250033,0,-1.3065352e-4)" />
  <path
     style="fill:#ffffff;stroke-width:0.0625"
     d="m 261.94426,63.201143 v -1.90625 h 19.5 19.5 v 1.90625 1.90625 h -19.5 -19.5 z"
     id="path183"
     inkscape:connector-curvature="0"
     transform="matrix(3.1250033,0,0,3.1250033,0,-1.3065352e-4)" />
  <path
     style="fill:#ffffff;stroke-width:0.0625"
     d="m 274.77199,27.029268 0.016,-4.765625 5.28125,0.02028 c 2.90468,0.01116 5.50625,0.04721 5.78125,0.08013 0.88191,0.105552 1.70771,0.410201 2.31692,0.85474 1.12653,0.822039 1.65463,3.645608 1.08089,5.779215 -0.29728,1.105505 -1.11452,1.982408 -2.29005,2.457224 -0.81432,0.32892 -1.03047,0.339661 -6.83509,0.339661 h -5.36721 z"
     id="path185"
     inkscape:connector-curvature="0"
     transform="matrix(3.1250033,0,0,3.1250033,0,-1.3065352e-4)" />
  <path
     style="fill:#ffffff;stroke-width:0.0625"
     d="m 274.77199,27.031484 0.016,-4.767841 5.28125,0.02023 c 2.90468,0.01113 5.50625,0.04718 5.78125,0.08013 1.03862,0.124417 2.02046,0.538465 2.54619,1.073749 0.55905,0.569215 0.91291,1.562838 1.05646,2.966518 0.11838,1.157554 -0.0817,2.554787 -0.47507,3.31804 -0.45274,0.878377 -1.38475,1.581135 -2.52486,1.903806 -0.47117,0.133349 -0.55467,0.135464 -6.08749,0.154207 l -5.60977,0.019 z"
     id="path187"
     inkscape:connector-curvature="0"
     transform="matrix(3.1250033,0,0,3.1250033,0,-1.3065352e-4)" />
  <path
     style="fill:#ffffff;stroke-width:0.0625"
     d="m 274.77199,27.029268 0.016,-4.765625 5.25,0.01874 c 3.18885,0.01139 5.47083,0.04485 5.8125,0.08523 1.04259,0.123234 2.00679,0.521863 2.53154,1.046618 0.56857,0.568566 0.93064,1.587772 1.07273,3.019639 0.0788,0.794634 0.0139,1.742396 -0.16849,2.460236 -0.37725,1.48439 -1.56583,2.511889 -3.24425,2.804582 -0.46777,0.08157 -1.36785,0.0962 -5.91886,0.0962 h -5.36721 z"
     id="path189"
     inkscape:connector-curvature="0"
     transform="matrix(3.1250033,0,0,3.1250033,0,-1.3065352e-4)" />
  <path
     style="fill:#000000;stroke-width:0.0625"
     d="m 274.77199,27.031767 0.016,-4.768124 5.3125,0.02052 c 5.72272,0.02211 6.08649,0.04048 6.94707,0.35091 0.61499,0.221842 1.0031,0.449663 1.34252,0.788069 1.12613,1.122782 1.46533,4.379916 0.64351,6.179335 -0.3359,0.735477 -0.95095,1.32787 -1.78905,1.72314 -0.97163,0.45825 -0.57765,0.432111 -6.84757,0.454303 l -5.64102,0.01997 z"
     id="path191"
     inkscape:connector-curvature="0"
     transform="matrix(3.1250033,0,0,3.1250033,0,-1.3065352e-4)" />
  <path
     style="fill:#ffffff;stroke-width:0.0625"
     d="M 22.259931,34.573557 V 14.914721 l 4.015625,0.01821 4.015625,0.01821 0.263503,0.140813 c 0.587305,0.313849 1.411582,1.530166 3.08121,4.546687 0.597811,1.080066 12.484302,21.469862 12.568312,21.559375 0.03265,0.03478 0.05573,-5.394845 0.05573,-13.109375 v -13.16875 h 4.125 4.125 V 34.58012 54.240349 l -3.734375,-0.02274 c -4.329283,-0.02636 -4.161123,-0.0056 -4.725993,-0.584137 -0.668266,-0.684462 -1.432976,-1.872756 -2.832257,-4.401083 -0.80715,-1.458418 -5.241732,-9.079511 -9.710168,-16.6875 -1.282042,-2.182812 -2.458655,-4.186718 -2.614695,-4.453125 -0.156041,-0.266406 -0.305941,-0.484375 -0.333111,-0.484375 -0.02717,0 -0.0494,5.990625 -0.0494,13.3125 v 13.3125 h -4.125 -4.125 z"
     id="path193"
     inkscape:connector-curvature="0"
     transform="matrix(3.1250033,0,0,3.1250033,0,-1.3065352e-4)" />
  <path
     style="fill:#ffffff;stroke-width:0.0625"
     d="m 17.759931,62.888643 v -1.90625 h 20.46875 20.46875 v 1.90625 1.90625 h -20.46875 -20.46875 z"
     id="path195"
     inkscape:connector-curvature="0"
     transform="matrix(3.1250033,0,0,3.1250033,0,-1.3065352e-4)" />
  <path
     style="fill:#ffffff;stroke-width:0.0625"
     d="M 95.916181,55.754301 C 91.8296,55.342712 88.64049,53.87309 85.911112,51.143712 c -2.853799,-2.8538 -4.773496,-6.811874 -5.555787,-11.45505 -0.517726,-3.072888 -0.462257,-6.573529 0.160733,-10.143769 0.445558,-2.553411 1.437352,-5.017193 2.923081,-7.261415 1.398742,-2.112828 3.276997,-3.928893 5.313962,-5.138013 2.160946,-1.282715 4.859583,-2.236785 7.10058,-2.510323 1.124147,-0.137214 3.710473,-0.188084 4.875719,-0.0959 4.92854,0.389903 8.74345,2.046662 11.68848,5.076144 3.08694,3.175454 4.97098,7.469948 5.60377,12.773256 0.0533,0.446917 0.0813,1.442059 0.08,2.84375 -0.002,1.875634 -0.0203,2.290459 -0.14185,3.1875 -0.5174,3.816902 -1.66702,7.007554 -3.52428,9.78125 -0.36828,0.55 -0.90664,1.28125 -1.19636,1.625 -0.61934,0.734842 -1.75434,1.851408 -2.41671,2.37745 -1.88682,1.498481 -4.34639,2.689749 -6.5625,3.178482 -1.47543,0.325385 -1.99907,0.364115 -5.156249,0.38136 -1.615625,0.0088 -3.05,0.0047 -3.1875,-0.0091 z m 4.562499,-6.741686 c 2.85815,-0.430059 5.44343,-2.170687 7.19269,-4.842722 1.15452,-1.76356 1.88542,-3.869006 2.22393,-6.40625 0.1114,-0.834983 0.11239,-4.028539 0.002,-4.875 -0.24632,-1.880467 -0.81867,-3.887021 -1.52822,-5.357623 -0.73311,-1.519443 -1.40042,-2.460939 -2.49756,-3.523786 -1.09361,-1.059424 -2.26482,-1.773064 -3.61111,-2.200322 -1.07453,-0.341012 -1.44436,-0.397625 -2.812499,-0.430529 -1.24353,-0.02991 -1.308989,-0.02519 -2.223497,0.160209 -2.133583,0.432544 -3.702475,1.151535 -4.932753,2.260581 -1.710786,1.542204 -2.934655,3.758046 -3.648574,6.605828 -0.398139,1.588151 -0.512451,2.486449 -0.552343,4.340453 -0.04863,2.259969 0.08724,3.532979 0.577117,5.40726 0.917895,3.511908 2.862996,6.207773 5.557615,7.702723 1.757382,0.97498 4.320446,1.450067 6.253684,1.159178 z"
     id="path197"
     inkscape:connector-curvature="0"
     transform="matrix(3.1250033,0,0,3.1250033,0,-1.3065352e-4)" />
  <path
     style="fill:#ffffff;stroke-width:0.0625"
     d="m 77.634931,63.201143 v -1.90625 h 21.25 21.249999 v 1.90625 1.90625 h -21.249999 -21.25 z"
     id="path199"
     inkscape:connector-curvature="0"
     transform="matrix(3.1250033,0,0,3.1250033,0,-1.3065352e-4)" />
  <path
     style="fill:#ffffff;stroke-width:0.0625"
     d="m 157.38493,55.75633 c -2.38819,-0.289303 -4.11586,-0.792253 -6,-1.746679 -4.33655,-2.19672 -7.70342,-6.326956 -9.21841,-11.308508 -1.63169,-5.365265 -1.46492,-11.74377 0.43646,-16.693638 0.64821,-1.687472 1.74645,-3.602231 2.88223,-5.025112 0.57391,-0.718977 2.10932,-2.243934 2.83722,-2.817912 2.75094,-2.169214 5.48409,-3.264064 9.375,-3.755458 0.86895,-0.109742 4.17414,-0.111332 5.0625,-0.0024 3.83641,0.470274 6.97638,1.624474 9.42388,3.464056 1.62059,1.218061 2.70747,2.57645 3.765,4.705499 0.55797,1.123329 0.87483,1.954824 1.09558,2.875 0.15321,0.638614 0.34054,1.776076 0.34054,2.067702 v 0.162274 l -3.29687,-0.02678 c -2.84698,-0.02313 -3.34805,-0.04116 -3.67188,-0.132164 -0.5649,-0.158746 -0.83154,-0.375392 -1.16657,-0.947838 -0.73387,-1.253896 -0.99018,-1.637469 -1.4323,-2.143411 -1.30654,-1.495156 -3.06172,-2.485302 -5.24488,-2.958782 -0.5806,-0.125919 -0.82917,-0.142327 -2.15625,-0.142327 -1.67274,0 -2.17524,0.07231 -3.44652,0.495921 -4.69403,1.564149 -7.77094,6.686926 -7.77094,12.937909 0,6.066093 2.97162,11.359053 7.43737,13.24724 1.22659,0.518619 2.26675,0.718379 3.75048,0.720272 1.1321,0.0014 1.78998,-0.07002 2.65405,-0.288322 3.86286,-0.975903 6.7724,-3.995549 7.30675,-7.58327 0.0533,-0.358098 0.085,-0.663075 0.0703,-0.677726 -0.0146,-0.01465 -2.03896,-0.0416 -4.49846,-0.05989 l -4.47182,-0.03325 v -3.303153 -3.303152 h 8.00018 8.00018 l -0.0158,10.515625 -0.0158,10.515625 -0.9375,0.0451 c -1.00109,0.04816 -2.60238,-0.02318 -3.13834,-0.139818 -0.41867,-0.09111 -0.70797,-0.285962 -0.84788,-0.571076 -0.16505,-0.336328 -0.38165,-1.252416 -0.60362,-2.552956 -0.10853,-0.635937 -0.21843,-1.209117 -0.24422,-1.273733 -0.0391,-0.09808 -0.22934,0.07764 -1.15143,1.063727 -1.80342,1.928578 -2.61206,2.584176 -4.12204,3.34192 -1.22336,0.613913 -2.33743,0.961191 -3.81514,1.189259 -0.67958,0.104886 -1.19566,0.131178 -2.88983,0.147226 -1.13437,0.01075 -2.16094,0.0076 -2.28125,-0.007 z"
     id="path201"
     inkscape:connector-curvature="0"
     transform="matrix(3.1250033,0,0,3.1250033,0,-1.3065352e-4)" />
  <path
     style="fill:#ffffff;stroke-width:0.0625"
     d="m 139.07243,63.201143 v -1.90625 h 20.9375 20.9375 v 1.90625 1.90625 h -20.9375 -20.9375 z"
     id="path203"
     inkscape:connector-curvature="0"
     transform="matrix(3.1250033,0,0,3.1250033,0,-1.3065352e-4)" />
  <path
     style="fill:#ffffff;stroke-width:0.0625"
     d="m 206.8774,34.888643 v -19.65625 h 14.375 14.375 v 3.34375 3.34375 H 225.40865 215.1899 v 4.5 4.5 h 9.4375 9.4375 v 3.3125 3.3125 h -9.4375 -9.4375 v 5.15625 5.15625 h 10.71875 10.71875 v 3.34375 3.34375 h -14.875 -14.875 z"
     id="path205"
     inkscape:connector-curvature="0"
     transform="matrix(3.1250033,0,0,3.1250033,0,-1.3065352e-4)" />
  <path
     style="fill:#ffffff;stroke-width:0.0625"
     d="m 202.4399,63.201143 v -1.90625 h 18.03125 18.03125 v 1.90625 1.90625 H 220.47115 202.4399 Z"
     id="path207"
     inkscape:connector-curvature="0"
     transform="matrix(3.1250033,0,0,3.1250033,0,-1.3065352e-4)" />
  <path
     style="fill:#ffffff;stroke-width:0.0625"
     d="M 266.1274,34.886936 V 15.228978 l 11.82812,0.01915 c 10.95427,0.01774 11.87199,0.02724 12.42188,0.128684 1.67781,0.309515 2.92039,0.859277 4.10632,1.816787 0.99804,0.805799 1.70331,1.715893 2.33067,3.007543 0.80473,1.656827 1.18801,3.424624 1.18801,5.479535 0,1.596364 -0.24389,3.058782 -0.72498,4.347217 -0.8489,2.273471 -2.11153,3.646046 -4.61378,5.015511 -0.40976,0.224256 -0.75359,0.435862 -0.76408,0.470237 -0.0105,0.03437 0.32287,0.259375 0.74081,0.5 2.24176,1.290698 3.03278,2.204827 3.51538,4.0625 0.40535,1.56032 0.52758,2.939137 0.59282,6.6875 0.0607,3.488243 0.0853,3.700479 0.53497,4.625 0.15049,0.309375 0.41968,0.759375 0.5982,1 0.4815,0.649007 0.59934,0.947739 0.77046,1.953125 l 0.0346,0.203125 h -3.6407 c -2.10815,0 -3.86364,-0.02705 -4.17031,-0.06425 -0.99318,-0.120489 -1.52364,-0.505058 -1.76491,-1.2795 -0.14536,-0.466571 -0.15273,-0.511196 -0.36212,-2.193052 -0.2578,-2.070738 -0.29301,-3.28091 -0.15274,-5.248959 0.17292,-2.426138 0.0725,-3.354412 -0.47728,-4.41113 -0.76531,-1.471012 -2.25034,-2.238095 -4.70206,-2.428809 -0.4169,-0.03243 -2.62129,-0.0596 -4.89863,-0.06038 l -4.14062,-0.0014 v 7.84375 7.84375 h -4.125 -4.125 z m 20.39863,-2.890734 c 1.29991,-0.363775 2.30818,-1.141325 2.81065,-2.167499 0.72532,-1.481295 0.68885,-4.101115 -0.0801,-5.75256 -0.39761,-0.853948 -1.02791,-1.412713 -1.98911,-1.763353 -0.9737,-0.355202 -0.8205,-0.347101 -7.09322,-0.375116 l -5.79687,-0.02589 v 5.132308 5.132308 l 5.82812,-0.0212 c 5.7857,-0.02105 5.83171,-0.0222 6.32051,-0.158995 z"
     id="path209"
     inkscape:connector-curvature="0"
     transform="matrix(3.1250033,0,0,3.1250033,0,-1.3065352e-4)" />
  <path
     style="fill:#ffffff;stroke-width:0.0625"
     d="m 261.9399,63.201143 v -1.90625 h 19.5 19.5 v 1.90625 1.90625 h -19.5 -19.5 z"
     id="path211"
     inkscape:connector-curvature="0"
     transform="matrix(3.1250033,0,0,3.1250033,0,-1.3065352e-4)" />
  <path
     style="fill:#ffffff;stroke-width:0.0625"
     d="m 156.9399,55.705552 c -3.14746,-0.40138 -5.97513,-1.58831 -8.45581,-3.549367 -1.2104,-0.956859 -2.6074,-2.454325 -3.65052,-3.913048 -2.04673,-2.862212 -3.35101,-6.769922 -3.7113,-11.119304 -0.0948,-1.144425 -0.0394,-4.401362 0.0914,-5.372216 0.25396,-1.885365 0.55325,-3.244882 1.03615,-4.706724 1.01754,-3.080269 2.40661,-5.359874 4.59028,-7.533115 1.02971,-1.024788 1.6335,-1.52131 2.77494,-2.281925 2.50863,-1.671675 5.30866,-2.588139 8.79364,-2.878196 1.09733,-0.09133 3.7305,-0.03724 4.71875,0.09694 2.65307,0.360216 4.72155,0.978889 6.81487,2.038304 2.36637,1.197606 4.03949,2.701562 5.27843,4.744752 0.91239,1.50467 1.60455,3.15439 1.90146,4.53199 0.10759,0.499214 0.25471,1.481865 0.25498,1.703125 l 2.6e-4,0.203125 -2.85938,-0.0017 c -3.8478,-0.0023 -4.39421,-0.0644 -4.88519,-0.555372 -0.12624,-0.126237 -0.39378,-0.523634 -0.59455,-0.883103 -0.69977,-1.252932 -1.27426,-1.974777 -2.15518,-2.707963 -1.22549,-1.019979 -2.63539,-1.6904 -4.28695,-2.038484 -0.82126,-0.173088 -2.42158,-0.233111 -3.43806,-0.12895 -5.2329,0.536221 -9.0487,4.931356 -9.85116,11.346815 -0.10079,0.805786 -0.10087,3.318244 -1.3e-4,4.125 0.32761,2.623644 1.20809,5.124424 2.46459,7 0.75714,1.130186 1.99966,2.428887 3.00049,3.13615 1.05828,0.747859 2.44209,1.350857 3.73053,1.625577 0.42587,0.0908 0.81638,0.113166 1.96875,0.112731 1.27377,-5e-4 1.51152,-0.01705 2.08743,-0.145508 2.21472,-0.493986 4.04292,-1.506814 5.50178,-3.047999 0.85019,-0.898166 1.56998,-2.106206 1.9698,-3.305951 0.14979,-0.449488 0.44923,-1.951077 0.3988,-1.999858 -0.0112,-0.0108 -2.03828,-0.04034 -4.50469,-0.06564 l -4.48438,-0.046 v -3.303625 -3.303625 h 8 8 v 10.521435 10.521435 l -1.01563,0.03922 c -1.06917,0.04129 -2.54914,-0.0276 -3.08136,-0.143423 -0.37459,-0.08152 -0.67098,-0.250092 -0.80835,-0.459746 -0.14278,-0.217913 -0.44019,-1.444066 -0.66027,-2.722142 -0.22097,-1.283204 -0.21597,-1.264722 -0.32981,-1.221041 -0.0482,0.0185 -0.53442,0.515179 -1.08049,1.103735 -1.66149,1.790779 -2.61706,2.561974 -4.08444,3.296363 -1.27024,0.635726 -2.37599,0.978974 -3.93965,1.222953 -0.90434,0.141105 -4.56254,0.183918 -5.5,0.06437 z"
     id="path213"
     inkscape:connector-curvature="0"
     transform="matrix(3.1250033,0,0,3.1250033,0,-1.3065352e-4)" />
  <path
     style="fill:#ffffff;stroke-width:0.0625"
     d="m 139.0649,63.201143 v -1.90625 h 20.9375 20.9375 v 1.90625 1.90625 h -20.9375 -20.9375 z"
     id="path215"
     inkscape:connector-curvature="0"
     transform="matrix(3.1250033,0,0,3.1250033,0,-1.3065352e-4)" />
</svg>
