<?xml version="1.0" encoding="UTF-8" standalone="no"?>
<svg
   xmlns:dc="http://purl.org/dc/elements/1.1/"
   xmlns:cc="http://creativecommons.org/ns#"
   xmlns:rdf="http://www.w3.org/1999/02/22-rdf-syntax-ns#"
   xmlns:svg="http://www.w3.org/2000/svg"
   xmlns="http://www.w3.org/2000/svg"
   xmlns:sodipodi="http://sodipodi.sourceforge.net/DTD/sodipodi-0.dtd"
   xmlns:inkscape="http://www.inkscape.org/namespaces/inkscape"
   width="3.33333in"
   height="0.8in"
   viewBox="0 0 1000 240"
   version="1.1"
   id="svg388"
   sodipodi:docname="logo-filled-d.svg"
   inkscape:version="0.92.5 (2060ec1f9f, 2020-04-08)">
  <metadata
     id="metadata394">
    <rdf:RDF>
      <cc:Work
         rdf:about="">
        <dc:format>image/svg+xml</dc:format>
        <dc:type
           rdf:resource="http://purl.org/dc/dcmitype/StillImage" />
        <dc:title></dc:title>
      </cc:Work>
    </rdf:RDF>
  </metadata>
  <defs
     id="defs392" />
  <sodipodi:namedview
     pagecolor="#ffffff"
     bordercolor="#666666"
     borderopacity="1"
     objecttolerance="10"
     gridtolerance="10"
     guidetolerance="10"
     inkscape:pageopacity="0"
     inkscape:pageshadow="2"
     inkscape:window-width="3840"
     inkscape:window-height="1970"
     id="namedview390"
     showgrid="false"
     inkscape:zoom="9.8818274"
     inkscape:cx="193.63859"
     inkscape:cy="46.966209"
     inkscape:window-x="3072"
     inkscape:window-y="44"
     inkscape:window-maximized="1"
     inkscape:current-layer="svg388" />
  <path
     id="Selection #14"
     fill="none"
     stroke="black"
     stroke-width="1"
     d="M 818.00,191.00            C 818.00,191.00 818.00,204.00 818.00,204.00              818.00,204.00 941.00,204.00 941.00,204.00              941.00,204.00 941.00,191.00 941.00,191.00              941.00,191.00 818.00,191.00 818.00,191.00 Z            M 632.00,191.00            C 632.00,191.00 632.00,204.00 632.00,204.00              632.00,204.00 746.00,204.00 746.00,204.00              746.00,204.00 746.00,191.00 746.00,191.00              746.00,191.00 632.00,191.00 632.00,191.00 Z            M 434.00,191.00            C 434.00,191.00 434.00,204.00 434.00,204.00              434.00,204.00 566.00,204.00 566.00,204.00              566.00,204.00 566.00,191.00 566.00,191.00              566.00,191.00 434.00,191.00 434.00,191.00 Z            M 242.00,191.00            C 242.00,191.00 242.00,204.00 242.00,204.00              242.00,204.00 376.00,204.00 376.00,204.00              376.00,204.00 376.00,191.00 376.00,191.00              376.00,191.00 242.00,191.00 242.00,191.00 Z            M 55.00,190.00            C 55.00,190.00 55.00,203.00 55.00,203.00              55.00,203.00 184.00,203.00 184.00,203.00              184.00,203.00 184.00,190.00 184.00,190.00              184.00,190.00 55.00,190.00 55.00,190.00 Z            M 831.00,47.00            C 831.00,47.00 831.00,171.00 831.00,171.00              831.00,171.00 858.00,171.00 858.00,171.00              858.00,171.00 858.00,122.00 858.00,122.00              858.00,122.00 882.00,122.00 882.00,122.00              886.95,122.06 893.94,122.73 897.61,126.39              903.64,132.41 901.03,140.64 901.00,148.00              900.98,153.25 901.05,153.85 901.72,159.00              902.69,166.41 902.10,170.83 911.00,171.00              911.00,171.00 934.00,171.00 934.00,171.00              933.38,163.32 931.01,164.65 928.89,159.00              927.87,156.27 928.00,152.89 928.00,150.00              927.99,141.98 928.18,125.48 923.49,119.02              920.70,115.17 916.98,113.30 913.00,111.00              917.21,108.94 921.36,106.39 924.48,102.83              935.33,90.46 934.16,65.33 921.91,54.33              915.30,48.39 908.53,47.01 900.00,47.00              900.00,47.00 831.00,47.00 831.00,47.00 Z            M 858.00,100.00            C 858.00,100.00 858.00,69.00 858.00,69.00              858.00,69.00 889.00,69.00 889.00,69.00              893.09,69.05 897.37,69.48 900.79,71.99              905.82,75.69 906.31,87.75 903.69,92.98              902.43,95.50 900.50,97.21 898.00,98.43              894.49,100.13 890.78,99.99 887.00,100.00              887.00,100.00 858.00,100.00 858.00,100.00 Z            M 646.00,47.00            C 646.00,47.00 646.00,171.00 646.00,171.00              646.00,171.00 740.00,171.00 740.00,171.00              740.00,171.00 740.00,149.00 740.00,149.00              740.00,149.00 673.00,149.00 673.00,149.00              673.00,149.00 673.00,118.00 673.00,118.00              673.00,118.00 732.00,118.00 732.00,118.00              732.00,118.00 732.00,96.00 732.00,96.00              732.00,96.00 673.00,96.00 673.00,96.00              673.00,96.00 673.00,69.00 673.00,69.00              673.00,69.00 737.00,69.00 737.00,69.00              737.00,69.00 737.00,47.00 737.00,47.00              737.00,47.00 646.00,47.00 646.00,47.00 Z            M 536.00,157.00            C 536.47,159.57 537.56,167.74 538.98,169.40              541.13,171.90 551.58,171.00 555.00,171.00              555.00,171.00 555.00,104.00 555.00,104.00              555.00,104.00 504.00,104.00 504.00,104.00              504.00,104.00 504.00,126.00 504.00,126.00              504.00,126.00 532.00,126.00 532.00,126.00              530.00,148.00 502.14,159.35 484.00,146.37              456.23,126.48 462.39,68.51 500.00,67.04              507.90,66.73 515.91,69.09 521.83,74.47              530.86,82.69 525.80,86.93 537.00,87.00              537.00,87.00 555.00,87.00 555.00,87.00              554.54,81.34 553.64,77.17 551.22,72.00              549.03,67.33 546.50,62.85 542.83,59.17              526.47,42.79 494.46,39.94 474.00,49.49              463.86,54.22 455.16,62.42 449.45,72.00              436.42,93.86 437.11,128.86 451.36,150.00              461.66,165.30 477.40,174.78 496.00,175.00              503.56,175.08 510.93,174.71 518.00,171.66              526.47,168.01 530.01,163.50 536.00,157.00 Z            M 297.00,45.46            C 278.48,49.46 265.02,58.71 256.37,76.00              252.06,84.61 250.84,91.61 249.84,101.00              246.08,136.10 264.16,174.53 304.00,175.00              318.36,175.16 328.13,175.22 341.00,167.55              376.72,146.25 379.11,84.97 349.00,58.18              334.97,45.71 315.05,42.97 297.00,45.46 Z            M 307.00,67.29            C 339.99,64.88 349.49,106.39 339.55,131.00              334.44,143.66 322.31,153.90 308.00,152.82              270.74,149.99 268.43,95.64 287.30,76.18              292.86,70.45 299.39,68.54 307.00,67.29 Z            M 69.00,46.00            C 69.00,46.00 69.00,170.00 69.00,170.00              69.00,170.00 96.00,170.00 96.00,170.00              96.00,170.00 96.00,88.00 96.00,88.00              96.00,88.00 112.42,116.00 112.42,116.00              112.42,116.00 132.28,150.00 132.28,150.00              134.61,154.10 141.44,167.78 145.21,169.40              146.89,170.12 150.12,170.00 152.00,170.00              152.00,170.00 171.00,170.00 171.00,170.00              171.00,170.00 171.00,46.00 171.00,46.00              171.00,46.00 144.00,46.00 144.00,46.00              144.00,46.00 144.00,127.00 144.00,127.00              144.00,127.00 107.80,65.00 107.80,65.00              105.53,61.19 99.08,48.08 95.67,46.57              94.07,45.86 90.80,46.00 89.00,46.00              89.00,46.00 69.00,46.00 69.00,46.00 Z            M 795.00,35.00            C 795.00,35.00 795.00,205.00 795.00,205.00              795.00,205.00 965.00,205.00 965.00,205.00              965.00,205.00 965.00,35.00 965.00,35.00              965.00,35.00 795.00,35.00 795.00,35.00 Z            M 605.00,35.00            C 605.00,35.00 605.00,205.00 605.00,205.00              605.00,205.00 775.00,205.00 775.00,205.00              775.00,205.00 775.00,35.00 775.00,35.00              775.00,35.00 605.00,35.00 605.00,35.00 Z            M 415.00,35.00            C 415.00,35.00 415.00,205.00 415.00,205.00              415.00,205.00 585.00,205.00 585.00,205.00              585.00,205.00 585.00,35.00 585.00,35.00              585.00,35.00 415.00,35.00 415.00,35.00 Z            M 225.00,35.00            C 225.00,35.00 225.00,205.00 225.00,205.00              225.00,205.00 395.00,205.00 395.00,205.00              395.00,205.00 395.00,35.00 395.00,35.00              395.00,35.00 225.00,35.00 225.00,35.00 Z            M 35.00,35.00            C 35.00,35.00 35.00,205.00 35.00,205.00              35.00,205.00 205.00,205.00 205.00,205.00              205.00,205.00 205.00,35.00 205.00,35.00              205.00,35.00 35.00,35.00 35.00,35.00 Z" />
  <path
     style="fill:#000000;stroke-width:0.07155628"
     d="m 21.855518,13.978304 c -0.680644,0.32669 -0.597895,1.136729 -0.582093,1.767244 0,12.811509 0,25.623017 0,38.434526 0.01201,0.691341 0.71581,1.116188 1.357752,0.999971 2.64644,-0.01041 5.29744,0.02073 7.941043,-0.01552 0.701999,-0.03224 1.04136,-0.788533 0.930119,-1.413788 0.004,-7.552912 -0.01149,-15.105865 0.01761,-22.658742 3.976251,6.806918 7.999741,13.584847 11.877702,20.449614 0.724968,1.169171 1.413066,2.446653 2.545081,3.27213 0.988551,0.481209 2.138097,0.277447 3.199057,0.344007 1.844981,-0.01164 3.698503,0.0604 5.538054,-0.0022 0.710482,-0.06037 0.966309,-0.857032 0.865406,-1.470602 0,-12.929744 0,-25.859488 0,-38.789233 -0.01201,-0.691341 -0.715811,-1.116187 -1.357753,-0.999971 -2.670299,0.01034 -5.345138,-0.02069 -8.012599,0.01552 -0.701999,0.03224 -1.04136,0.788534 -0.930119,1.413788 -0.0044,7.426151 0.01238,14.852349 -0.01845,22.27846 C 41.170681,30.665986 37.116029,23.72463 33.114871,16.76229 c -0.670159,-1.014467 -1.281118,-2.268118 -2.494408,-2.71243 -1.522085,-0.198508 -3.069778,-0.09452 -4.602238,-0.14049 -1.291803,0.01321 -2.592281,-0.05734 -3.878717,0.0077 -0.09466,0.02041 -0.189327,0.04082 -0.28399,0.06124 z"
     id="path4129"
     inkscape:connector-curvature="0"
     transform="matrix(3.1250033,0,0,3.1250033,0,-1.3065352e-4)" />
  <path
     style="fill:#000000;stroke-width:0.07155628"
     d="m 17.342022,60.072006 c -0.676092,0.329478 -0.591822,1.135779 -0.576643,1.764589 0.03834,1.069137 -0.07889,2.155347 0.06208,3.213219 0.154145,0.664614 0.928573,0.792299 1.51034,0.72056 13.452581,0 26.905161,0 40.357741,0 0.691341,-0.01201 1.116188,-0.715811 0.999971,-1.357753 -0.03062,-1.213096 0.06139,-2.439651 -0.04656,-3.644259 -0.100331,-0.671351 -0.868876,-0.877694 -1.454304,-0.790413 -13.476432,0 -26.952865,0 -40.429297,0 -0.141109,0.03135 -0.282219,0.06271 -0.423328,0.09406 z"
     id="path4131"
     inkscape:connector-curvature="0"
     transform="matrix(3.1250033,0,0,3.1250033,0,-1.3065352e-4)" />
  <path
     style="fill:#000000;stroke-width:0.07155628"
     d="m 98.518146,13.47699 c -2.603719,0.0033 -5.207265,0.481034 -7.608724,1.498909 -3.397676,1.361322 -6.383262,3.757469 -8.340359,6.861716 -1.643751,2.544395 -2.792033,5.423985 -3.171117,8.438889 -0.434007,2.768372 -0.471272,5.592655 -0.201753,8.378887 0.612363,4.801182 2.484858,9.567211 5.897465,13.071924 3.18732,3.319806 7.798565,5.135234 12.382448,5.068041 2.655434,-0.02958 5.371564,0.09281 7.943114,-0.691658 4.23943,-1.259208 7.94956,-4.157662 10.22376,-7.948586 3.3297,-5.457909 4.21915,-12.219293 2.94642,-18.439319 -0.78136,-3.685769 -2.32846,-7.289864 -4.86093,-10.115617 -1.433,-1.597597 -3.10019,-3.006705 -5.04332,-3.943375 -3.13316,-1.576577 -6.67648,-2.227014 -10.167004,-2.179811 z m 0.158067,8.865152 c 1.513547,-0.01867 3.076627,0.126278 4.426037,0.869913 2.75951,1.386561 4.47414,4.23782 5.27888,7.132988 0.74586,2.669708 0.80611,5.507817 0.38424,8.23702 -0.50713,3.054819 -2.0201,6.035167 -4.57871,7.863224 -1.51689,1.115917 -3.39466,1.746911 -5.285295,1.645115 -2.908408,-0.0349 -5.740981,-1.572788 -7.372674,-3.980197 -1.554869,-2.25615 -2.333568,-4.998945 -2.444373,-7.720811 -0.06805,-1.936811 -0.0054,-3.895471 0.51917,-5.783768 0.686521,-2.701115 2.028747,-5.453976 4.503186,-6.92963 1.325806,-0.758071 2.840046,-1.166559 4.351237,-1.329661 0.07274,-0.0029 0.145522,-0.0033 0.218302,-0.0042 z"
     id="path4133"
     inkscape:connector-curvature="0"
     transform="matrix(3.1250033,0,0,3.1250033,0,-1.3065352e-4)" />
  <path
     style="fill:#000000;stroke-width:0.07155628"
     d="m 77.234626,60.429788 c -0.676092,0.329477 -0.591822,1.135779 -0.576643,1.764589 0.04397,1.068518 -0.09275,2.156868 0.0776,3.211515 0.220267,0.648903 0.982377,0.704892 1.566376,0.650707 13.929622,0 27.859241,0 41.788871,0 0.69134,-0.01201 1.11618,-0.715811 0.99997,-1.357752 -0.0296,-1.189356 0.0601,-2.391809 -0.0466,-3.572704 -0.10033,-0.67135 -0.86888,-0.877693 -1.45431,-0.790413 -13.97732,0 -27.954652,0 -41.931978,0 -0.141109,0.03135 -0.282218,0.06271 -0.423328,0.09406 z"
     id="path4135"
     inkscape:connector-curvature="0"
     transform="matrix(3.1250033,0,0,3.1250033,0,-1.3065352e-4)" />
  <path
     style="fill:#000000;stroke-width:0.07155628"
     d="m 138.62991,60.429788 c -0.67609,0.329477 -0.59182,1.135779 -0.57664,1.764589 0.044,1.068518 -0.0927,2.156868 0.0776,3.211515 0.22027,0.648903 0.98238,0.704892 1.56638,0.650707 13.7388,0 27.47761,0 41.21641,0 0.69134,-0.01201 1.11619,-0.715811 0.99997,-1.357752 -0.0296,-1.189356 0.0601,-2.391809 -0.0466,-3.572704 -0.10033,-0.67135 -0.86887,-0.877693 -1.4543,-0.790413 -13.78651,0 -27.57302,0 -41.35953,0 -0.14111,0.03135 -0.28222,0.06271 -0.42333,0.09406 z"
     id="path4137"
     inkscape:connector-curvature="0"
     transform="matrix(3.1250033,0,0,3.1250033,0,-1.3065352e-4)" />
  <path
     style="fill:#000000;stroke-width:0.07155628"
     d="m 159.91623,13.317945 c -4.45323,-0.01946 -8.99064,1.355685 -12.41707,4.2615 -2.99572,2.452615 -5.20601,5.819062 -6.30175,9.529855 -1.22442,3.9815 -1.41548,8.250014 -0.78385,12.355416 0.66393,4.25211 2.41982,8.402471 5.41421,11.540479 2.81769,3.066768 6.70503,5.143718 10.84782,5.657696 1.87614,0.233289 3.78099,0.135826 5.65916,-0.02531 3.00684,-0.338333 5.90695,-1.721235 7.97375,-3.945681 0.2342,-0.237934 0.4646,-0.479601 0.69196,-0.724066 0.23871,0.960126 0.30205,2.058515 0.97887,2.833741 0.89675,0.81371 2.21359,0.688831 3.33841,0.747987 0.83999,-0.03162 1.70127,0.08687 2.52306,-0.110549 0.69397,-0.350362 0.56951,-1.186186 0.56658,-1.831393 -0.0103,-6.725155 0.0207,-13.454852 -0.0155,-20.177167 -0.0323,-0.701999 -0.78854,-1.04136 -1.41379,-0.930118 -5.19862,0.01037 -10.40179,-0.0207 -15.59757,0.01552 -0.702,0.03225 -1.04136,0.788534 -0.93012,1.413788 0.0208,2.120551 -0.0415,4.250224 0.031,6.365102 0.0639,0.707911 0.85802,0.960215 1.46983,0.860265 2.44498,0 4.88996,0 7.33494,0 -0.56054,2.946015 -3.0127,5.23487 -5.79753,6.13575 -3.03853,1.03799 -6.62742,0.412351 -9.00736,-1.787028 -2.72621,-2.467903 -4.09267,-6.172707 -4.25647,-9.763306 -0.21189,-3.573982 0.63203,-7.3413 2.95727,-10.139314 1.7075,-2.086549 4.37557,-3.420948 7.09442,-3.294215 1.22681,-0.06331 2.46156,0.09641 3.60395,0.561711 1.96254,0.721746 3.56727,2.256102 4.47621,4.128082 0.46754,0.970312 1.49624,1.615453 2.57816,1.572665 2.16887,0.05486 4.34348,0.06674 6.51038,0.05696 0.71785,-0.02688 1.08038,-0.821501 0.88978,-1.454854 -0.27015,-2.860845 -1.53977,-5.551599 -3.24074,-7.835245 -2.41578,-3.004427 -6.10094,-4.710426 -9.80349,-5.507111 -1.76558,-0.388163 -3.56771,-0.550431 -5.37454,-0.511164 z"
     id="path4139"
     inkscape:connector-curvature="0"
     transform="matrix(3.1250033,0,0,3.1250033,0,-1.3065352e-4)" />
  <path
     style="fill:#000000;stroke-width:0.07155628"
     d="m 202.0245,60.429788 c -0.67609,0.329477 -0.59182,1.135779 -0.57664,1.764589 0.044,1.068518 -0.0927,2.156868 0.0776,3.211515 0.22027,0.648903 0.98238,0.704892 1.56638,0.650707 11.80678,0 23.61357,0 35.42035,0 0.69134,-0.01201 1.11619,-0.715811 0.99997,-1.357752 -0.0296,-1.189356 0.0601,-2.391809 -0.0466,-3.572704 -0.10033,-0.67135 -0.86887,-0.877693 -1.4543,-0.790413 -11.85449,0 -23.70898,0 -35.56347,0 -0.14111,0.03135 -0.28222,0.06271 -0.42333,0.09406 z"
     id="path4141"
     inkscape:connector-curvature="0"
     transform="matrix(3.1250033,0,0,3.1250033,0,-1.3065352e-4)" />
  <path
     style="fill:#000000;stroke-width:0.07155628"
     d="m 206.46099,14.347545 c -0.67609,0.329478 -0.59182,1.135779 -0.57664,1.764589 0,12.808574 0,25.617147 0,38.425721 0.012,0.691341 0.71581,1.116188 1.35775,0.999971 9.77936,0 19.55872,0 29.33807,0 0.69134,-0.01201 1.11619,-0.715811 0.99998,-1.357752 -0.0208,-2.144403 0.0415,-4.297928 -0.031,-6.436658 -0.0639,-0.707912 -0.85801,-0.960215 -1.46982,-0.860266 -6.63149,0 -13.26297,0 -19.89446,0 0,-2.768053 0,-5.536108 0,-8.304162 5.98634,-0.01037 11.97723,0.02068 17.96074,-0.01552 0.702,-0.03225 1.04136,-0.788534 0.93012,-1.413788 -0.0208,-2.120551 0.0415,-4.250224 -0.031,-6.365102 -0.0639,-0.707911 -0.85801,-0.960215 -1.46982,-0.860265 -5.79666,0 -11.59333,0 -17.38999,0 0,-2.338717 0,-4.677433 0,-7.016149 6.51109,-0.01037 13.02672,0.02068 19.53497,-0.01552 0.702,-0.03224 1.04136,-0.788534 0.93012,-1.413788 -0.0208,-2.120551 0.0415,-4.250224 -0.031,-6.365102 -0.0639,-0.707911 -0.85801,-0.960215 -1.46982,-0.860265 -9.42158,0 -18.84315,0 -28.26473,0 -0.14111,0.03135 -0.28222,0.0627 -0.42333,0.09406 z"
     id="path4143"
     inkscape:connector-curvature="0"
     transform="matrix(3.1250033,0,0,3.1250033,0,-1.3065352e-4)" />
  <path
     style="fill:#000000;stroke-width:0.10119586"
     d="m 265.59602,14.375058 c -0.83481,0.633044 -0.38692,1.797544 -0.50044,2.687817 0,12.480822 0,24.961646 0,37.442468 0.0295,0.879518 0.98739,1.111147 1.70827,0.999902 2.56134,-0.01741 5.13183,0.03484 7.68745,-0.02615 0.93535,-0.08118 0.96852,-1.166052 0.90214,-1.884514 0,-4.594068 0,-9.188136 0,-13.782204 3.02424,0.07457 6.05116,-0.05105 9.0513,0.205752 1.47893,0.178438 2.93358,1.218364 3.15723,2.766679 0.26653,2.878986 -0.31313,5.768096 0.22092,8.645767 0.19028,1.30947 0.28952,2.99674 1.67887,3.625021 1.09258,0.694607 2.43877,0.302344 3.65602,0.418904 1.89301,-0.02047 3.80333,0.09878 5.68546,-0.0096 0.85218,-0.122203 0.91148,-1.143679 0.67158,-1.801328 -0.19227,-1.460967 -1.71788,-2.368554 -1.66361,-3.89604 -0.23507,-3.496137 0.0689,-7.089793 -0.91689,-10.493734 -0.45315,-1.655466 -1.82347,-2.82584 -3.20526,-3.729027 2.48048,-1.329612 4.23332,-3.789025 4.84966,-6.517409 0.92319,-3.863426 0.27761,-8.259694 -2.28102,-11.381807 -1.90549,-2.306315 -4.93433,-3.463293 -7.88851,-3.347146 -7.43751,-0.09112 -14.87583,-0.044 -22.31371,-0.05695 -0.16649,0.04454 -0.33297,0.08907 -0.49946,0.13361 z m 14.54908,8.545121 c 2.05932,0.0537 4.13814,-0.114434 6.1848,0.143887 0.98072,0.166861 1.92488,0.757101 2.19094,1.768161 0.44162,1.537802 0.57645,3.32112 -0.18639,4.781108 -0.70547,1.244897 -2.25296,1.636817 -3.58986,1.556514 -3.11672,0.05416 -6.23412,0.05354 -9.35115,0.08021 0,-2.776627 0,-5.553254 0,-8.329881 1.58389,0 3.16777,0 4.75166,0 z"
     id="path4145"
     inkscape:connector-curvature="0"
     transform="matrix(3.1250033,0,0,3.1250033,0,-1.3065352e-4)" />
  <path
     style="fill:#000000;stroke-width:0.10119586"
     d="m 261.44699,60.419173 c -0.84368,0.647792 -0.38174,1.832587 -0.50044,2.738416 0.10092,0.823313 -0.24561,1.814183 0.2766,2.514808 0.62886,0.636733 1.64306,0.250615 2.44363,0.357217 12.41336,0 24.82671,0 37.24007,0 0.87952,-0.02947 1.11115,-0.987399 0.9999,-1.708273 -0.0697,-1.17514 0.15169,-2.388535 -0.13361,-3.535333 -0.63318,-0.834724 -1.7975,-0.386984 -2.68781,-0.500445 -12.37963,0 -24.75926,0 -37.13888,0 -0.16649,0.04454 -0.33297,0.08907 -0.49946,0.13361 z"
     id="path4147"
     inkscape:connector-curvature="0"
     transform="matrix(3.1250033,0,0,3.1250033,0,-1.3065352e-4)" />
  <path
     style="fill:#ffffff;stroke-width:0.10119586"
     d="m 254.11976,10.529615 c -0.83472,0.633181 -0.38698,1.797505 -0.50044,2.687818 0,17.405687 0,34.811375 0,52.217062 0.0295,0.879527 0.9874,1.111122 1.70827,0.999947 1.93492,-0.03536 3.88843,0.07058 5.81189,-0.05215 0.97183,-0.169463 0.8132,-1.341775 0.7881,-2.07526 0.001,-0.986282 -0.0657,-1.975758 0.008,-2.960296 12.54543,-0.112245 25.09222,-0.09114 37.63794,-0.02471 0.37676,0.127414 1.20415,-0.208603 1.33944,0.173443 0.078,1.407585 -0.0918,2.841555 0.0939,4.2321 0.28493,0.957163 1.47833,0.665206 2.237,0.706705 1.83384,-0.03449 3.68591,0.06959 5.5083,-0.05218 0.96386,-0.166898 0.81522,-1.33098 0.80438,-2.060753 0,-17.641811 0,-35.283623 0,-52.925434 -0.0295,-0.879519 -0.9874,-1.111147 -1.70827,-0.999902 -17.74301,0 -35.48601,0 -53.22902,0 -0.16649,0.04454 -0.33297,0.08907 -0.49946,0.13361 z m 18.90149,4.717269 c 5.77665,0.01855 11.56266,-0.01161 17.33335,0.06117 2.0192,0.442304 3.99681,1.389011 5.30567,3.062655 2.4013,3.074112 2.8982,7.373216 1.81856,11.058217 -0.62604,2.262408 -2.24359,4.140838 -4.2112,5.359532 -0.70047,0.536187 -0.29095,1.559572 0.42195,1.867586 1.24898,0.821417 2.25672,2.060965 2.51896,3.561507 0.70605,3.34322 0.44145,6.787669 0.80601,10.177695 0.17244,1.523448 1.72015,2.530558 1.6308,4.122149 -2.7433,-0.05075 -5.49762,0.109576 -8.23422,-0.110485 -1.02987,-0.141993 -1.3647,-1.250365 -1.49412,-2.132355 -0.58319,-2.802785 -0.25582,-5.684177 -0.36567,-8.523235 0.0777,-1.17268 -0.23508,-2.39609 -1.12114,-3.216148 -1.00571,-1.147375 -2.56224,-1.485947 -4.02333,-1.51657 -2.67197,-0.123677 -5.35685,-0.153104 -8.02615,-0.14351 -0.94322,0.07029 -0.98518,1.163222 -0.91506,1.885794 -0.0369,4.493162 0.0803,8.990061 -0.0774,13.480852 0.0363,0.421588 -0.57907,0.155147 -0.82864,0.250754 -2.46148,0.03652 -4.93161,0.111042 -7.38927,0.02431 -0.2156,-4.538094 -0.089,-9.086126 -0.12841,-13.628235 0.0274,-8.422191 -0.0599,-16.845784 0.0722,-25.267054 -0.0875,-0.651813 0.87593,-0.218621 1.283,-0.351168 1.87462,-0.01982 3.7494,-0.02045 5.6241,-0.02346 z"
     id="path4157"
     inkscape:connector-curvature="0"
     transform="matrix(3.1250033,0,0,3.1250033,0,-1.3065352e-4)" />
  <path
     style="fill:#ffffff;stroke-width:0.10119586"
     d="m 193.30105,10.529615 c -0.83472,0.633181 -0.38698,1.797505 -0.50044,2.687818 0,17.405687 0,34.811375 0,52.217062 0.0295,0.879519 0.98739,1.111148 1.70827,0.999903 2.34207,-0.01753 4.69333,0.03495 7.02967,-0.02615 0.93536,-0.08118 0.96852,-1.166051 0.90215,-1.884513 0,-1.066774 0,-2.133546 0,-3.200319 11.42714,0.0076 22.85474,-0.0835 34.28161,-0.0051 0.59254,0.01356 1.18586,0.0243 1.77653,0.07664 0.11976,1.440411 -0.0691,2.90854 0.12075,4.332808 0.28493,0.957179 1.47833,0.665193 2.23699,0.706628 2.39043,-0.03452 4.79904,0.06927 7.17803,-0.0523 0.96387,-0.166898 0.81522,-1.33098 0.80439,-2.060753 0,-17.641811 0,-35.283623 0,-52.925434 -0.0295,-0.879519 -0.9874,-1.111147 -1.70828,-0.999902 -17.77673,0 -35.55347,0 -53.33021,0 -0.16649,0.04454 -0.33297,0.08907 -0.49946,0.13361 z m 33.25391,4.699283 c 3.03151,0.02771 6.06788,-0.0591 9.09577,0.112857 0.0666,2.168501 0.10945,4.385892 -0.0138,6.521402 -6.48729,0.146569 -12.98608,0.0088 -19.46866,0.09533 -0.93536,0.08118 -0.96852,1.166052 -0.90214,1.884514 0.0351,2.088085 -0.07,4.194592 0.0523,6.271221 0.167,0.9642 1.33142,0.81514 2.06135,0.803632 5.5514,0.0168 11.10404,-0.0576 16.65462,0.05313 0.0879,2.210763 0.0694,4.449254 0.0322,6.64671 -5.96497,0.01749 -11.93912,-0.03492 -17.89835,0.02615 -0.93536,0.08118 -0.96852,1.166052 -0.90214,1.884514 0.0176,2.459194 -0.035,4.927627 0.0262,7.381093 0.0812,0.934959 1.16283,0.965034 1.88194,0.904485 6.4683,0.01663 12.9366,0.03324 19.4049,0.04984 0.0917,2.190461 0.013,4.445918 0.0393,6.661335 -2.26758,0.105603 -4.62003,0.02228 -6.92024,0.05523 -7.37755,-0.0082 -14.83682,0.07097 -22.16546,-0.01195 -0.61762,0.136192 -0.71902,-0.257047 -0.6309,-0.808579 -0.0911,-11.649855 -0.0665,-23.30061 -0.0383,-34.950712 0.0168,-1.170397 0.0131,-2.342528 0.0968,-3.510632 6.53085,-0.09787 13.06323,-0.05816 19.59464,-0.06957 z"
     id="path4159"
     inkscape:connector-curvature="0"
     transform="matrix(3.1250033,0,0,3.1250033,0,-1.3065352e-4)" />
  <path
     style="fill:#ffffff;stroke-width:0.10119586"
     d="m 132.48234,10.529615 c -0.83472,0.633181 -0.38698,1.797505 -0.50044,2.687818 0,17.405687 0,34.811375 0,52.217062 0.0295,0.879519 0.98739,1.111148 1.70827,0.999903 1.54517,-0.04947 3.11658,0.10075 4.6447,-0.07846 0.95717,-0.284928 0.66519,-1.478327 0.70662,-2.236994 0.011,-0.922961 -0.0286,-1.84885 0.0486,-2.769643 10.68728,-0.130117 21.37631,-0.02934 32.06426,-0.03959 3.25191,0.0046 6.50381,0.0091 9.75572,0.0137 0.0513,1.464744 -0.10287,2.956503 0.0785,4.404159 0.28492,0.957158 1.47832,0.665209 2.23699,0.706728 1.35948,-0.05054 2.74585,0.103277 4.08812,-0.07836 0.95718,-0.284928 0.66519,-1.478327 0.70663,-2.236994 0,-17.574347 0,-35.148694 0,-52.723042 -0.0295,-0.879519 -0.9874,-1.111147 -1.70828,-0.999902 -17.77674,0 -35.55347,0 -53.33021,0 -0.16649,0.04454 -0.33297,0.08907 -0.49946,0.13361 z m 27.78736,3.777847 c 3.35884,-0.08383 6.74166,0.67192 9.75057,2.164643 2.61328,1.291375 4.75682,3.470611 5.97179,6.124665 0.74977,1.567854 1.34495,3.282399 1.40642,5.019925 -0.58771,0.242055 -1.36666,0.01456 -2.02932,0.07252 -1.7713,-0.0913 -3.56608,0.06482 -5.31766,-0.256531 -0.92111,-0.54149 -1.16283,-1.708103 -1.89228,-2.445897 -1.3233,-1.676988 -3.16646,-2.964652 -5.28591,-3.377016 -3.4944,-0.854561 -7.41473,0.187146 -9.8824,2.842971 -2.45576,2.595495 -3.72756,6.214252 -3.66223,9.768167 -0.0722,2.403437 0.2007,4.844372 1.17195,7.065571 1.36419,3.392525 4.17176,6.452708 7.86354,7.204034 2.22111,0.36098 4.58605,0.235414 6.6219,-0.799831 2.49827,-1.218547 4.58975,-3.453697 5.20161,-6.214504 0.17061,-0.849451 -0.71952,-1.398118 -1.47959,-1.227475 -2.40087,-0.01722 -4.81015,0.04471 -7.20586,-0.07443 -0.12139,-2.204525 -0.057,-4.415865 -0.10041,-6.622992 0.62313,-0.245818 1.43418,-0.03797 2.13065,-0.10673 4.5805,0.03728 9.16477,-0.08048 13.74293,0.07625 0.1957,0.316078 0.0493,0.947283 0.10692,1.384538 0.0365,6.302129 0.0824,12.60589 -0.0139,18.907448 0.0866,0.572841 -0.11484,0.889229 -0.72432,0.74573 -1.19233,-0.03789 -2.42487,0.08668 -3.58974,-0.187374 -0.99255,-0.478197 -0.78478,-1.806372 -1.20882,-2.664298 -0.40632,-0.719393 -1.40369,-0.597791 -1.86421,-0.0097 -1.57806,1.619389 -3.47851,2.996447 -5.69254,3.576913 -2.53018,0.670379 -5.19805,0.630742 -7.7864,0.401566 -5.89335,-0.804831 -10.98897,-5.033822 -13.37711,-10.408433 -2.00622,-4.377147 -2.44721,-9.356036 -1.84475,-14.095953 0.58062,-4.433039 2.46022,-8.769773 5.71985,-11.88977 3.47312,-3.44107 8.41858,-5.147409 13.26931,-4.974019 z"
     id="path4161"
     inkscape:connector-curvature="0"
     transform="matrix(3.1250033,0,0,3.1250033,0,-1.3065352e-4)" />
  <path
     style="fill:#ffffff;stroke-width:0.10119586"
     d="m 71.66363,10.529615 c -0.834725,0.633181 -0.386985,1.797505 -0.500445,2.687818 0,17.405687 0,34.811375 0,52.217062 0.02947,0.879519 0.987399,1.111148 1.708273,0.999903 1.359376,-0.05156 2.7459,0.103696 4.08812,-0.07826 0.965338,-0.287795 0.659874,-1.488254 0.688516,-2.250704 2.89e-4,-0.918588 -0.05821,-1.840794 0.02285,-2.757317 11.326014,-0.12755 22.653626,-0.0274 33.980256,-0.03639 2.81339,0.0039 5.62679,0.0078 8.44018,0.01168 0.0513,1.464744 -0.10287,2.956503 0.0785,4.404159 0.28492,0.957158 1.47832,0.665209 2.23699,0.706728 1.35948,-0.05054 2.74585,0.103277 4.08812,-0.07836 0.95718,-0.284928 0.66519,-1.478327 0.70663,-2.236994 0,-17.574347 0,-35.148694 0,-52.723042 -0.0295,-0.879519 -0.9874,-1.111147 -1.70828,-0.999902 -17.77674,0 -35.553478,0 -53.330217,0 -0.166486,0.04454 -0.332972,0.08907 -0.499457,0.13361 z M 98.5505,14.47151 c 3.30024,-0.09063 6.61946,0.505331 9.59544,1.981767 4.22864,2.08977 7.26351,6.111779 8.70816,10.542873 2.31545,6.910645 1.66234,14.925869 -2.3024,21.113299 -2.87353,4.428001 -7.89693,7.563805 -13.23578,7.659907 -2.015108,0.02302 -4.113823,0.134815 -6.081364,-0.04452 -2.042557,-0.285393 -4.002135,-0.892669 -5.840108,-1.898609 -1.602929,-0.864418 -3.172304,-2.168314 -4.394706,-3.614786 -2.103432,-2.461647 -3.456186,-5.444223 -4.273873,-8.558185 -1.018561,-4.223612 -0.924161,-8.647891 -0.09613,-12.912533 0.910267,-3.685095 2.759018,-7.22338 5.624007,-9.785694 3.327663,-2.963464 7.847501,-4.588458 12.296752,-4.483515 z"
     id="path4163"
     inkscape:connector-curvature="0"
     transform="matrix(3.1250033,0,0,3.1250033,0,-1.3065352e-4)" />
  <path
     style="fill:#ffffff;stroke-width:0.10119586"
     d="m 10.946115,10.529615 c -0.834724,0.633181 -0.386985,1.797505 -0.500445,2.687818 0,17.405687 0,34.811375 0,52.217062 0.02947,0.879519 0.987399,1.111148 1.708273,0.999903 1.643681,-0.03429 3.305438,0.06894 4.937689,-0.0523 0.7676,-0.105161 0.928549,-1.025109 0.670577,-1.636402 -0.06361,-1.228927 -0.09103,-2.46507 0.0036,-3.692859 12.762382,-0.132274 25.526341,-0.102117 38.289166,-0.04358 0.866898,0.02681 1.804329,-0.02179 2.629142,0.06196 0.06216,1.470399 0.04903,2.961587 -0.07615,4.416031 0.178295,1.018735 1.375489,0.95314 2.16292,0.943397 1.600414,-0.02627 3.218822,0.07183 4.807636,-0.04855 0.963863,-0.166898 0.81522,-1.33098 0.804385,-2.060753 0,-17.641811 0,-35.283623 0,-52.925434 -0.02947,-0.879519 -0.987399,-1.111147 -1.708273,-0.999902 -17.743007,0 -35.486014,0 -53.229021,0 -0.166486,0.04454 -0.332971,0.08907 -0.499457,0.13361 z m 37.793689,4.30794 c 1.928761,9.3e-4 3.857435,0.02287 5.786149,0.03439 0.09589,2.68254 0.01358,5.433046 0.04095,8.141721 -0.02502,10.190541 0.05445,20.381961 -0.05617,30.571933 0.163061,0.649659 -0.294233,0.680946 -0.826345,0.612009 -2.373328,-0.02821 -4.796025,0.0653 -7.128197,-0.143496 -1.58743,-1.260435 -2.357451,-3.21231 -3.424115,-4.869251 -3.53726,-6.119144 -7.071819,-12.279978 -10.707408,-18.346834 -0.5086,-0.771888 -1.79436,-0.335747 -1.79042,0.572721 -0.05952,7.333347 -0.0057,14.668415 -0.149027,22.000612 0.04781,0.526479 -0.0442,0.955829 -0.680501,0.781897 -2.489229,0.009 -4.982224,0.06614 -7.469322,-0.04803 -0.121515,-11.308758 -0.06465,-22.618952 -0.06527,-33.928273 0.02178,-1.780405 -0.0098,-3.564653 0.121603,-5.341452 2.679041,-0.06325 5.429249,-0.05544 8.051792,0.120763 1.009391,0.634913 1.504454,1.81574 2.158713,2.773794 3.765079,6.403483 7.404098,12.882553 11.261174,19.231313 0.306796,0.650573 1.093113,1.301515 1.797144,0.786202 0.773815,-0.555246 0.361126,-1.630329 0.475692,-2.428793 0.06537,-6.78522 -0.02501,-13.572749 0.118749,-20.356597 0.174353,-0.287405 0.818764,-0.07716 1.176182,-0.155149 0.436191,-0.0068 0.872403,-0.0079 1.308636,-0.0095 z"
     id="path4165"
     inkscape:connector-curvature="0"
     transform="matrix(3.1250033,0,0,3.1250033,0,-1.3065352e-4)" />
  <path
     style="fill:#ffffff;stroke-width:0.10119586"
     d="m 98.629756,21.488613 c -2.157488,-0.0735 -4.240893,0.846456 -5.967788,2.077084 -2.586215,2.162412 -3.858998,5.514989 -4.365553,8.767481 -0.18886,2.043346 -0.221132,4.124689 0.05781,6.16128 0.604538,3.684258 2.490628,7.421311 5.877859,9.25705 1.611266,0.928224 3.47818,1.381536 5.336645,1.229071 3.069521,0.0048 5.887331,-1.868267 7.655511,-4.28311 2.09528,-2.851419 2.84905,-6.476411 2.70265,-9.964433 -0.0258,-3.961109 -1.32302,-8.110856 -4.32233,-10.830744 -1.6155,-1.606295 -3.88577,-2.581078 -6.181048,-2.414367 -0.264585,-0.0015 -0.529171,3.03e-4 -0.793756,6.88e-4 z"
     id="path4186"
     inkscape:connector-curvature="0"
     transform="matrix(3.1250033,0,0,3.1250033,0,-1.3065352e-4)" />
  <path
     style="fill:#ffffff;stroke-width:0.10119586"
     d="m 274.9748,22.040051 c -0.84712,0.627519 -0.39507,1.800544 -0.50914,2.692759 0.0177,2.197503 -0.0352,4.404276 0.0261,6.596034 0.0826,0.941261 1.17516,0.969621 1.89631,0.891419 3.2418,-0.08603 6.49482,0.03099 9.7289,-0.233766 1.85776,-0.155515 3.40623,-1.745805 3.57296,-3.592841 0.17668,-1.784998 0.17291,-3.893135 -1.17628,-5.255274 -1.08471,-1.087836 -2.70571,-1.114058 -4.13908,-1.113268 -2.99752,-0.05686 -6.00443,-0.112747 -8.99718,-0.08854 -0.13421,0.03449 -0.26842,0.06899 -0.40264,0.103479 z"
     id="path4188"
     inkscape:connector-curvature="0"
     transform="matrix(3.1250033,0,0,3.1250033,0,-1.3065352e-4)" />
</svg>
